<svg width="300" height="268" viewBox="0 0 300 268" fill="none" xmlns="http://www.w3.org/2000/svg">
<g clip-path="url(#clip0_90_1175)">
<path d="M72.6628 241.57L72.9963 230.775C76.4737 228.1 80.3523 226.687 84.2952 226.659C78.8686 233.044 79.5467 245.353 75.8676 253.94C74.7058 256.605 73.1422 258.86 71.2926 260.538C69.4429 262.215 67.3547 263.272 65.1827 263.631L60.6415 267.632C60.0183 262.633 60.1557 257.498 61.0441 252.582C61.9326 247.666 63.5509 243.086 65.7877 239.157C67.0577 236.971 68.514 235.023 70.1221 233.361C71.2097 237.488 72.6628 241.57 72.6628 241.57Z" fill="#F2F2F2"/>
<path d="M266.434 17.588H55.03C54.9413 17.5851 54.8568 17.5324 54.7948 17.4411C54.7327 17.3498 54.6979 17.2271 54.6979 17.0994C54.6979 16.9717 54.7327 16.849 54.7948 16.7577C54.8568 16.6664 54.9413 16.6136 55.03 16.6108H266.434C266.523 16.6136 266.608 16.6664 266.67 16.7577C266.732 16.849 266.766 16.9717 266.766 17.0994C266.766 17.2271 266.732 17.3498 266.67 17.4411C266.608 17.5324 266.523 17.5851 266.434 17.588Z" fill="#CACACA"/>
<path d="M62.504 10.7482C64.5213 10.7482 66.1567 8.34213 66.1567 5.3741C66.1567 2.40607 64.5213 0 62.504 0C60.4867 0 58.8513 2.40607 58.8513 5.3741C58.8513 8.34213 60.4867 10.7482 62.504 10.7482Z" fill="#3F3D56"/>
<path d="M75.1223 10.7482C77.1396 10.7482 78.7749 8.34213 78.7749 5.3741C78.7749 2.40607 77.1396 0 75.1223 0C73.105 0 71.4696 2.40607 71.4696 5.3741C71.4696 8.34213 73.105 10.7482 75.1223 10.7482Z" fill="#3F3D56"/>
<path d="M87.7406 10.7482C89.7579 10.7482 91.3932 8.34213 91.3932 5.3741C91.3932 2.40607 89.7579 0 87.7406 0C85.7232 0 84.0879 2.40607 84.0879 5.3741C84.0879 8.34213 85.7232 10.7482 87.7406 10.7482Z" fill="#3F3D56"/>
<path d="M258.873 1.33203H249.909C249.732 1.33711 249.563 1.44225 249.438 1.62488C249.314 1.80751 249.244 2.05306 249.244 2.30881C249.244 2.56456 249.314 2.81011 249.438 2.99274C249.563 3.17536 249.732 3.28051 249.909 3.28558H258.873C259.05 3.28051 259.22 3.17536 259.344 2.99274C259.468 2.81011 259.538 2.56456 259.538 2.30881C259.538 2.05306 259.468 1.80751 259.344 1.62488C259.22 1.44225 259.05 1.33711 258.873 1.33203Z" fill="#3F3D56"/>
<path d="M258.873 4.99854H249.909C249.732 5.00361 249.563 5.10875 249.438 5.29138C249.314 5.47401 249.244 5.71956 249.244 5.97531C249.244 6.23106 249.314 6.47661 249.438 6.65924C249.563 6.84187 249.732 6.94701 249.909 6.95209H258.873C259.05 6.94701 259.22 6.84187 259.344 6.65924C259.468 6.47661 259.538 6.23106 259.538 5.97531C259.538 5.71956 259.468 5.47401 259.344 5.29138C259.22 5.10875 259.05 5.00361 258.873 4.99854Z" fill="#3F3D56"/>
<path d="M258.873 8.66022H249.909C249.732 8.66529 249.563 8.77043 249.438 8.95306C249.314 9.13568 249.244 9.38124 249.244 9.63699C249.244 9.89274 249.314 10.1383 249.438 10.3209C249.563 10.5036 249.732 10.6087 249.909 10.6138H258.873C259.05 10.6087 259.22 10.5036 259.344 10.3209C259.468 10.1383 259.538 9.89274 259.538 9.63699C259.538 9.38124 259.468 9.13568 259.344 8.95306C259.22 8.77043 259.05 8.66529 258.873 8.66022Z" fill="#3F3D56"/>
<path d="M219.559 55.8839H74.4563C73.7413 55.8839 73.0556 56.2924 72.5497 57.0195C72.0438 57.7467 71.7592 58.7331 71.7582 59.7621V158.339C71.759 159.369 72.0435 160.356 72.5493 161.084C73.0552 161.812 73.7409 162.221 74.4563 162.223H219.559C220.273 162.22 220.958 161.81 221.464 161.083C221.969 160.355 222.253 159.368 222.253 158.339V59.7621C222.253 58.7338 221.968 57.748 221.463 57.0209C220.958 56.2938 220.273 55.8849 219.559 55.8839Z" fill="#3F3D56"/>
<path d="M181.231 103.375C180.517 103.376 179.832 103.785 179.326 104.512C178.821 105.24 178.537 106.225 178.536 107.254V135.099C178.537 136.128 178.821 137.114 179.326 137.842C179.831 138.57 180.516 138.98 181.231 138.982H222.253V103.375H181.231Z" fill="#FF5252"/>
<path opacity="0.5" d="M291.23 138.98H181.233C180.518 138.979 179.832 138.569 179.326 137.842C178.821 137.114 178.537 136.128 178.536 135.099V107.255C178.537 106.225 178.821 105.239 179.326 104.511C179.832 103.784 180.518 103.374 181.233 103.373H291.23C291.945 103.374 292.631 103.784 293.136 104.511C293.642 105.239 293.926 106.225 293.927 107.255V135.099C293.926 136.128 293.642 137.114 293.136 137.842C292.631 138.569 291.945 138.979 291.23 138.98Z" fill="#FF5252"/>
<path d="M196.108 129.255C198.525 129.255 200.484 126.435 200.484 122.957C200.484 119.478 198.525 116.659 196.108 116.659C193.691 116.659 191.732 119.478 191.732 122.957C191.732 126.435 193.691 129.255 196.108 129.255Z" fill="white"/>
<path d="M287.822 121.127H208.749C208.403 121.127 208.071 120.929 207.827 120.577C207.583 120.226 207.445 119.749 207.445 119.251C207.445 118.754 207.583 118.277 207.827 117.925C208.071 117.573 208.403 117.376 208.749 117.376H287.822C288.168 117.376 288.499 117.573 288.744 117.925C288.988 118.277 289.125 118.754 289.125 119.251C289.125 119.749 288.988 120.226 288.744 120.577C288.499 120.929 288.168 121.127 287.822 121.127Z" fill="white"/>
<path d="M257.789 128.538H208.749C208.403 128.538 208.071 128.34 207.827 127.988C207.583 127.637 207.445 127.16 207.445 126.662C207.445 126.165 207.583 125.688 207.827 125.336C208.071 124.984 208.403 124.786 208.749 124.786H257.789C258.135 124.786 258.466 124.984 258.711 125.336C258.955 125.688 259.092 126.165 259.092 126.662C259.092 127.16 258.955 127.637 258.711 127.988C258.466 128.34 258.135 128.538 257.789 128.538Z" fill="white"/>
<path d="M50.6195 262.496L54.4068 262.496L56.2085 241.472H50.6188L50.6195 262.496Z" fill="#FFB6B6"/>
<path d="M49.6535 260.716L50.7195 260.716L54.8814 258.281L57.112 260.716H57.1123C58.3729 260.716 59.5818 261.437 60.4732 262.72C61.3645 264.003 61.8653 265.742 61.8654 267.557V267.779L49.6538 267.78L49.6535 260.716Z" fill="#2F2E41"/>
<path d="M16.3992 255.41L19.789 257.841L27.9179 240.182L22.9153 236.593L16.3992 255.41Z" fill="#FFB6B6"/>
<path d="M16.0863 253.197L17.0403 253.881L21.5202 254.373L22.7616 257.985L22.7619 257.985C23.8901 258.794 24.7486 260.216 25.1488 261.936C25.5489 263.656 25.4578 265.535 24.8956 267.159L24.8266 267.358L13.8972 259.518L16.0863 253.197Z" fill="#2F2E41"/>
<path d="M52.2976 167.013L28.2171 167.917L28.6359 184.793C28.6359 184.793 28.2171 189.313 29.0547 190.519C29.8923 191.724 30.3111 191.724 29.8923 193.834C29.4735 195.943 28.3908 216.099 28.3908 216.099C28.3908 216.099 18.5075 241.25 18.9263 241.853C19.3451 242.456 19.7639 241.853 19.3451 243.36C18.9263 244.866 18.5075 244.264 18.9263 244.866C19.2973 245.442 19.6468 246.046 19.9733 246.675H26.7988C26.7988 246.675 27.1805 243.661 27.1805 243.36C27.1805 243.058 27.5993 241.25 27.5993 240.949C27.5993 240.647 39.5245 222.463 39.5245 222.463L42.0372 192.327L48.1097 221.861C48.1097 221.861 48.1097 247.778 48.5285 248.381C48.9472 248.983 48.9472 248.682 48.7378 249.887C48.5285 251.093 47.6909 250.792 48.319 251.696C48.9472 252.6 49.1566 251.093 48.9472 252.6L48.7378 254.107L56.7826 254.236C56.7826 254.236 57.6202 251.696 57.2014 250.792C56.7826 249.887 56.8078 250.134 57.3187 248.655C57.8296 247.175 58.039 246.874 57.8296 246.572C57.6202 246.271 57.6202 244.668 57.6202 244.668C57.6202 244.668 54.6009 185.396 54.6009 184.492C54.5851 184.026 54.6447 183.562 54.7748 183.136V181.909L53.9727 177.56L52.2976 167.013Z" fill="#2F2E41"/>
<path d="M290.76 114.686C288.932 114.686 287.146 113.906 285.626 112.445C284.107 110.983 282.922 108.906 282.223 106.476C281.524 104.046 281.341 101.373 281.697 98.7929C282.054 96.2132 282.934 93.8436 284.226 91.9838C285.518 90.124 287.165 88.8574 288.957 88.3443C290.75 87.8312 292.607 88.0945 294.296 89.101C295.984 90.1076 297.427 91.8121 298.443 93.999C299.458 96.186 300 98.7571 300 101.387C300 104.914 299.027 108.297 297.294 110.791C295.561 113.285 293.211 114.686 290.76 114.686Z" fill="#FF5252"/>
<path d="M294.406 100.076H291.671V96.14C291.671 95.7921 291.575 95.4584 291.404 95.2124C291.233 94.9664 291.002 94.8282 290.76 94.8282C290.518 94.8282 290.286 94.9664 290.115 95.2124C289.944 95.4584 289.848 95.7921 289.848 96.14V100.076H287.114C286.994 100.075 286.875 100.109 286.764 100.175C286.654 100.24 286.553 100.337 286.468 100.459C286.383 100.581 286.316 100.725 286.27 100.885C286.224 101.044 286.201 101.215 286.201 101.387C286.201 101.56 286.224 101.731 286.27 101.89C286.316 102.049 286.383 102.194 286.468 102.316C286.553 102.438 286.654 102.534 286.764 102.6C286.875 102.666 286.994 102.699 287.114 102.699H289.848V106.635C289.848 106.983 289.944 107.316 290.115 107.562C290.286 107.808 290.518 107.946 290.76 107.946C291.002 107.946 291.233 107.808 291.404 107.562C291.575 107.316 291.671 106.983 291.671 106.635V102.699H294.406C294.647 102.699 294.879 102.561 295.05 102.315C295.221 102.069 295.317 101.735 295.317 101.387C295.317 101.039 295.221 100.706 295.05 100.46C294.879 100.214 294.647 100.076 294.406 100.076Z" fill="white"/>
<path d="M149.741 139.16H114.633C113.917 139.161 113.232 139.571 112.726 140.299C112.22 141.027 111.935 142.014 111.935 143.043V162.223H152.435V143.043C152.435 142.014 152.151 141.028 151.646 140.3C151.14 139.572 150.455 139.162 149.741 139.16Z" fill="#FF5252"/>
<path opacity="0.5" d="M149.739 193.051H114.631C113.916 193.05 113.231 192.641 112.725 191.913C112.22 191.185 111.935 190.199 111.935 189.17V143.041C111.935 142.012 112.22 141.026 112.725 140.298C113.231 139.57 113.916 139.161 114.631 139.16H149.739C150.454 139.161 151.14 139.57 151.645 140.298C152.151 141.026 152.435 142.012 152.436 143.041V189.17C152.435 190.199 152.151 191.185 151.645 191.913C151.14 192.641 150.454 193.05 149.739 193.051Z" fill="#FF5252"/>
<path d="M124.975 161.025C127.392 161.025 129.351 158.205 129.351 154.727C129.351 151.248 127.392 148.428 124.975 148.428C122.558 148.428 120.599 151.248 120.599 154.727C120.599 158.205 122.558 161.025 124.975 161.025Z" fill="white"/>
<path d="M142.468 170.598H121.902C121.557 170.598 121.225 170.4 120.981 170.048C120.736 169.697 120.599 169.22 120.599 168.722C120.599 168.225 120.736 167.748 120.981 167.396C121.225 167.044 121.557 166.847 121.902 166.847H142.468C142.814 166.847 143.145 167.044 143.39 167.396C143.634 167.748 143.771 168.225 143.771 168.722C143.771 169.22 143.634 169.697 143.39 170.048C143.145 170.4 142.814 170.598 142.468 170.598Z" fill="white"/>
<path d="M131.826 178.009H121.902C121.557 178.009 121.225 177.811 120.981 177.459C120.736 177.108 120.599 176.63 120.599 176.133C120.599 175.636 120.736 175.159 120.981 174.807C121.225 174.455 121.557 174.257 121.902 174.257H131.826C132.172 174.257 132.503 174.455 132.748 174.807C132.992 175.159 133.13 175.636 133.13 176.133C133.13 176.63 132.992 177.108 132.748 177.459C132.503 177.811 132.172 178.009 131.826 178.009Z" fill="white"/>
<path d="M113.9 206.589C112.072 206.589 110.285 205.809 108.766 204.348C107.246 202.887 106.062 200.81 105.363 198.38C104.663 195.95 104.48 193.276 104.837 190.696C105.193 188.117 106.073 185.747 107.366 183.887C108.658 182.027 110.304 180.761 112.097 180.248C113.889 179.735 115.747 179.998 117.436 181.005C119.124 182.011 120.567 183.716 121.582 185.903C122.598 188.09 123.14 190.661 123.14 193.291C123.14 196.818 122.166 200.2 120.433 202.694C118.7 205.188 116.35 206.589 113.9 206.589Z" fill="#FF5252"/>
<path d="M117.545 191.979H114.811V188.044C114.811 187.696 114.715 187.362 114.544 187.116C114.373 186.87 114.141 186.732 113.9 186.732C113.658 186.732 113.426 186.87 113.255 187.116C113.084 187.362 112.988 187.696 112.988 188.044V191.979H110.254C110.134 191.979 110.015 192.012 109.904 192.078C109.793 192.144 109.693 192.241 109.608 192.362C109.523 192.484 109.456 192.629 109.41 192.788C109.364 192.948 109.34 193.118 109.34 193.291C109.34 193.463 109.364 193.634 109.41 193.793C109.456 193.953 109.523 194.098 109.608 194.219C109.693 194.341 109.793 194.438 109.904 194.504C110.015 194.569 110.134 194.603 110.254 194.603H112.988V198.538C112.988 198.886 113.084 199.22 113.255 199.466C113.426 199.712 113.658 199.85 113.9 199.85C114.141 199.85 114.373 199.712 114.544 199.466C114.715 199.22 114.811 198.886 114.811 198.538V194.603H117.545C117.787 194.603 118.019 194.465 118.19 194.218C118.361 193.972 118.457 193.639 118.457 193.291C118.457 192.943 118.361 192.609 118.19 192.363C118.019 192.117 117.787 191.979 117.545 191.979Z" fill="white"/>
<path d="M109.622 109.835H74.5143C73.7993 109.834 73.1138 109.425 72.6083 108.697C72.1027 107.969 71.8183 106.983 71.8175 105.954V59.8251C71.8183 58.7961 72.1027 57.8096 72.6083 57.082C73.1139 56.3544 73.7993 55.9451 74.5143 55.944H109.622C110.337 55.9451 111.023 56.3544 111.528 57.082C112.034 57.8096 112.318 58.7961 112.319 59.8251V105.954C112.318 106.983 112.034 107.969 111.528 108.697C111.023 109.425 110.337 109.834 109.622 109.835Z" fill="#FF5252"/>
<path d="M84.8582 81.6581C87.2751 81.6581 89.2344 78.8383 89.2344 75.3599C89.2344 71.8815 87.2751 69.0617 84.8582 69.0617C82.4414 69.0617 80.4821 71.8815 80.4821 75.3599C80.4821 78.8383 82.4414 81.6581 84.8582 81.6581Z" fill="#FF5252"/>
<path d="M102.351 89.3064H81.7853C81.4397 89.3064 81.1082 89.1088 80.8639 88.7571C80.6195 88.4053 80.4822 87.9283 80.4822 87.4309C80.4822 86.9335 80.6195 86.4565 80.8639 86.1047C81.1082 85.753 81.4397 85.5554 81.7853 85.5554H102.351C102.697 85.5554 103.028 85.753 103.273 86.1047C103.517 86.4565 103.654 86.9335 103.654 87.4309C103.654 87.9283 103.517 88.4053 103.273 88.7571C103.028 89.1088 102.697 89.3064 102.351 89.3064Z" fill="#FF5252"/>
<path d="M91.7094 96.7173H81.7853C81.4397 96.7173 81.1082 96.5197 80.8638 96.168C80.6194 95.8163 80.4821 95.3392 80.4821 94.8418C80.4821 94.3443 80.6194 93.8673 80.8638 93.5155C81.1082 93.1638 81.4397 92.9662 81.7853 92.9662H91.7094C92.0551 92.9662 92.3865 93.1638 92.6309 93.5155C92.8753 93.8673 93.0126 94.3443 93.0126 94.8418C93.0126 95.3392 92.8753 95.8163 92.6309 96.168C92.3865 96.5197 92.0551 96.7173 91.7094 96.7173Z" fill="#FF5252"/>
<path opacity="0.5" d="M109.622 109.835H74.5143C73.7993 109.834 73.1138 109.425 72.6083 108.697C72.1027 107.969 71.8183 106.983 71.8175 105.954V59.8251C71.8183 58.7961 72.1027 57.8096 72.6083 57.082C73.1139 56.3544 73.7993 55.9451 74.5143 55.944H109.622C110.337 55.9451 111.023 56.3544 111.528 57.082C112.034 57.8096 112.318 58.7961 112.319 59.8251V105.954C112.318 106.983 112.034 107.969 111.528 108.697C111.023 109.425 110.337 109.834 109.622 109.835Z" fill="#FF5252"/>
<path d="M84.8582 81.6581C87.2751 81.6581 89.2344 78.8383 89.2344 75.3599C89.2344 71.8815 87.2751 69.0617 84.8582 69.0617C82.4414 69.0617 80.4821 71.8815 80.4821 75.3599C80.4821 78.8383 82.4414 81.6581 84.8582 81.6581Z" fill="white"/>
<path d="M102.351 89.3064H81.7853C81.4397 89.3064 81.1082 89.1088 80.8639 88.7571C80.6195 88.4053 80.4822 87.9283 80.4822 87.4309C80.4822 86.9335 80.6195 86.4565 80.8639 86.1047C81.1082 85.753 81.4397 85.5554 81.7853 85.5554H102.351C102.697 85.5554 103.028 85.753 103.273 86.1047C103.517 86.4565 103.654 86.9335 103.654 87.4309C103.654 87.9283 103.517 88.4053 103.273 88.7571C103.028 89.1088 102.697 89.3064 102.351 89.3064Z" fill="white"/>
<path d="M91.7094 96.7173H81.7853C81.4397 96.7173 81.1082 96.5197 80.8638 96.168C80.6194 95.8163 80.4821 95.3392 80.4821 94.8418C80.4821 94.3443 80.6194 93.8673 80.8638 93.5155C81.1082 93.1638 81.4397 92.9662 81.7853 92.9662H91.7094C92.0551 92.9662 92.3865 93.1638 92.6309 93.5155C92.8753 93.8673 93.0126 94.3443 93.0126 94.8418C93.0126 95.3392 92.8753 95.8163 92.6309 96.168C92.3865 96.5197 92.0551 96.7173 91.7094 96.7173Z" fill="white"/>
<path d="M75.2386 65.897C79.1161 65.897 82.2595 61.373 82.2595 55.7924C82.2595 50.2118 79.1161 45.6879 75.2386 45.6879C71.3611 45.6879 68.2177 50.2118 68.2177 55.7924C68.2177 61.373 71.3611 65.897 75.2386 65.897Z" fill="#FF5252"/>
<path d="M94.5049 267.427C94.5051 267.503 94.4949 267.577 94.475 267.647C94.455 267.716 94.4257 267.78 94.3887 267.833C94.3518 267.886 94.3078 267.928 94.2595 267.957C94.2112 267.986 94.1593 268 94.1071 268H0.397838C0.292321 268 0.191124 267.94 0.116512 267.832C0.0419006 267.725 -1.52588e-05 267.579 -1.52588e-05 267.427C-1.52588e-05 267.276 0.0419006 267.13 0.116512 267.023C0.191124 266.915 0.292321 266.855 0.397838 266.855H94.1071C94.1593 266.855 94.2112 266.869 94.2595 266.898C94.3078 266.927 94.3518 266.969 94.3887 267.022C94.4257 267.075 94.455 267.138 94.475 267.208C94.4949 267.278 94.5051 267.352 94.5049 267.427Z" fill="#CCCCCC"/>
<path d="M73.738 82.5573C74.0266 83.7188 73.9865 84.9969 73.6264 86.1162C73.2662 87.2355 72.6148 88.1063 71.8127 88.5407C71.6352 88.6361 71.4522 88.7087 71.2659 88.7576L69.4116 105.098L65.062 99.3178L67.4896 84.687C67.3998 83.4541 67.6507 82.2199 68.1881 81.2511C68.7255 80.2823 69.5062 79.6568 70.3614 79.5099C71.081 79.3912 71.8072 79.6282 72.4208 80.182C73.0344 80.7357 73.4989 81.5734 73.738 82.5573L73.738 82.5573Z" fill="#FFB6B6"/>
<path d="M41.6375 119.583C41.6375 119.583 45.0134 113.163 57.2637 113.339L64.217 109.703L65.8061 88.7383L71.368 90.6442L70.5734 116.564L58.6551 126.475L43.029 131.049L41.6375 119.583Z" fill="#3F3D56"/>
<path d="M39.8438 106.209C43.8594 106.209 47.1147 101.524 47.1147 95.7446C47.1147 89.9653 43.8594 85.2803 39.8438 85.2803C35.8283 85.2803 32.573 89.9653 32.573 95.7446C32.573 101.524 35.8283 106.209 39.8438 106.209Z" fill="#FFB6B6"/>
<path d="M27.5378 175.087C27.5249 175.087 27.5121 175.085 27.4996 175.08C27.3654 175.026 27.2594 174.983 27.7438 168.955L28.2667 164.189L27.7562 159.982L26.8977 158.746L28.2775 156.76L29.4355 152.027L27.4319 147.754L25.1332 130.279C24.738 127.264 25.0451 124.145 26.0068 121.407C26.9686 118.668 28.5313 116.463 30.4526 115.133L33.1131 114.014L34.0811 111.459C34.3529 110.742 34.7532 110.142 35.2403 109.722C35.7275 109.302 36.2838 109.078 36.8516 109.072L41.7236 109.019C42.2152 109.014 42.7009 109.172 43.1427 109.483C43.5845 109.793 43.9704 110.246 44.2702 110.807L45.9699 113.987L53.0184 117.433L51.8497 153.675C52.0354 153.899 52.1868 154.175 52.2943 154.487C52.4018 154.8 52.4632 155.14 52.4745 155.489C52.4858 155.837 52.4467 156.184 52.3599 156.509C52.273 156.835 52.1402 157.13 51.9698 157.378C51.8965 157.484 51.8383 157.571 51.8024 157.628C51.6836 157.871 51.9065 159.685 52.1818 161.225L52.5349 163.583C52.4216 163.7 52.3263 163.849 52.2551 164.021C52.1838 164.193 52.1382 164.385 52.121 164.584C52.1038 164.783 52.1154 164.985 52.1551 165.177C52.1948 165.369 52.2618 165.547 52.3518 165.7L52.8019 166.465C52.8909 167.425 52.7119 168.396 52.304 169.166C51.8962 169.936 51.2928 170.441 50.6263 170.572C44.1846 171.834 27.5715 175.087 27.5378 175.087Z" fill="#3F3D56"/>
<path d="M37.9838 105.696C37.9527 105.598 37.9218 105.499 37.8909 105.4C37.9028 105.401 37.9146 105.403 37.9265 105.404L37.9838 105.696Z" fill="#2F2E41"/>
<path d="M32.3708 85.7562C32.716 85.2875 33.1647 85.0082 33.6385 84.9674C34.1087 84.9892 34.5854 85.6004 34.488 86.2627C35.3516 84.0621 36.7262 82.3695 38.3705 81.4821C40.0148 80.5948 41.8237 80.5693 43.4797 81.4102C44.6483 82.0035 45.7942 83.1906 46.0627 84.9316C46.0888 85.3887 46.1835 85.8322 46.3403 86.2315C46.4761 86.445 46.6524 86.5966 46.8474 86.6677C47.0424 86.7388 47.2475 86.7263 47.4376 86.6316L47.4492 86.6267C47.5142 86.5948 47.5845 86.5916 47.6508 86.6177C47.7171 86.6438 47.7765 86.698 47.8212 86.7731C47.8659 86.8483 47.8939 86.9411 47.9016 87.0394C47.9093 87.1377 47.8963 87.2371 47.8643 87.3247L47.5336 88.2122C47.9504 88.3459 48.3835 88.3326 48.796 88.1735C48.8645 88.1477 48.9369 88.153 49.0032 88.1887C49.0696 88.2244 49.1266 88.2887 49.1666 88.3729C49.2065 88.4571 49.2273 88.5571 49.2262 88.659C49.2251 88.7609 49.2022 88.8599 49.1605 88.9423C48.611 90.0242 47.8936 90.9066 47.0654 91.5193C46.2373 92.1319 45.3212 92.4579 44.39 92.4713C43.069 92.4597 41.7343 91.8044 40.4486 92.2417C39.9512 92.4108 39.4864 92.7381 39.0884 93.1995C38.6903 93.6608 38.3691 94.2446 38.1483 94.908C37.9274 95.5713 37.8126 96.2974 37.8122 97.033C37.8118 97.7685 37.9258 98.4949 38.1458 99.1588C37.7509 98.537 36.9873 98.6842 36.5833 99.2938C36.3973 99.6202 36.2597 99.998 36.1792 100.404C36.0988 100.81 36.077 101.235 36.1154 101.654C36.2232 102.936 36.4876 104.18 36.8965 105.329C35.3343 105.26 33.8244 104.503 32.5709 103.159C31.3174 101.815 30.3807 99.9503 29.8872 97.816C29.3937 95.6816 29.3672 93.3807 29.8113 91.224C30.2555 89.0674 31.1489 87.1588 32.3708 85.7562L32.3708 85.7562Z" fill="#2F2E41"/>
<path d="M30.3703 190.095C29.6752 189.374 29.2049 188.288 29.0609 187.072C28.917 185.856 29.1108 184.607 29.6006 183.595C29.7093 183.372 29.8314 183.163 29.9657 182.97L25.0594 167.995L30.9191 169.21L34.6799 183.244C35.2394 184.187 35.5187 185.408 35.4574 186.645C35.3961 187.881 34.9991 189.033 34.3523 189.852C33.8062 190.537 33.1145 190.934 32.3909 190.978C31.6673 191.022 30.9548 190.711 30.3704 190.095H30.3703Z" fill="#FFB6B6"/>
<path d="M28.8845 181.918L21.0772 156.665L20.9991 136.719L23.4601 125.946C23.794 124.484 24.3281 123.134 25.0308 121.974C25.7335 120.814 26.5906 119.869 27.5515 119.195C28.5123 118.52 29.5573 118.13 30.6248 118.046C31.6923 117.963 32.7606 118.188 33.7666 118.709L33.8208 118.737L33.8435 118.813C33.9345 119.119 35.9986 126.467 29.876 141.583L28.6438 151.927L32.9674 175.636L28.8845 181.918Z" fill="#3F3D56"/>
</g>
<defs>
<clipPath id="clip0_90_1175">
<rect width="300" height="268" fill="white"/>
</clipPath>
</defs>
</svg>
