<svg width="307" height="238" viewBox="0 0 307 238" fill="none" xmlns="http://www.w3.org/2000/svg">
<g clip-path="url(#clip0_90_1134)">
<path d="M159.644 22.9569C155.904 29.5401 162.947 40.6325 155.849 42.9359L156.434 42.3384C160.718 36.9538 151.763 25.5571 156.047 20.1725C156.713 19.3826 157.285 18.5148 157.75 17.5871" fill="#2F2E41"/>
<path d="M194.673 119.538C194.796 118.879 194.775 118.201 194.614 117.551C194.452 116.901 194.153 116.295 193.737 115.776C193.322 115.257 192.8 114.838 192.208 114.547C191.617 114.256 190.97 114.102 190.314 114.094L181.068 86.6506L175.951 93.3151L185.726 118.958C185.786 120.085 186.249 121.151 187.028 121.953C187.806 122.754 188.844 123.237 189.947 123.308C191.05 123.38 192.14 123.035 193.011 122.341C193.882 121.646 194.473 120.649 194.673 119.538L194.673 119.538Z" fill="#FFB8B8"/>
<path d="M154.032 53.2785C154.032 53.2785 153.744 43.3442 162.439 49.0351C171.135 54.7261 190.066 108.036 190.066 108.036L180.645 113.244L159.258 64.459L154.032 53.2785Z" fill="#FF5252"/>
<path d="M179.685 223.545L175.343 225.44L166.12 209.232L172.529 206.434L179.685 223.545Z" fill="#FFB6B6"/>
<path d="M185.191 230.23L182.077 231.589L180.265 228.828L180.098 232.453L171.84 236.059C171.444 236.232 171.004 236.271 170.585 236.17C170.166 236.07 169.789 235.835 169.51 235.5C169.231 235.166 169.064 234.749 169.033 234.31C169.002 233.871 169.109 233.434 169.339 233.062L173.987 225.529L172.717 222.493L179.831 219.888L185.191 230.23Z" fill="#2F2E41"/>
<path d="M111.622 229.042L106.906 228.807L105.55 210.11L112.511 210.458L111.622 229.042Z" fill="#FFB6B6"/>
<path d="M113.712 237.515L110.33 237.346L109.882 234.054L108.18 237.239L99.21 236.791C98.7801 236.769 98.3681 236.608 98.0342 236.33C97.7003 236.053 97.462 235.673 97.3541 235.248C97.2463 234.822 97.2744 234.372 97.4345 233.964C97.5945 233.555 97.8782 233.21 98.2439 232.978L105.649 228.282L105.807 224.983L113.319 225.819L113.712 237.515Z" fill="#2F2E41"/>
<path d="M123.535 107.507C123.535 107.507 113.945 134.21 113.79 137.198C113.635 140.186 110.9 177.973 108.606 180.169C106.312 182.364 99.2996 216.404 104.756 219.066C110.213 221.729 127.428 217.318 127.428 217.318L133.417 177.11L135.452 146.305C135.452 146.305 141.645 218.844 152.879 218.631C164.112 218.418 177.801 214.047 177.801 214.047L162.078 170.117C162.078 170.117 162.3 118.109 158.656 107.619C155.011 97.1293 123.535 107.507 123.535 107.507Z" fill="#2F2E41"/>
<path d="M151.992 38.7114L139.149 39.9133L137.08 46.4025C137.08 46.4025 126.331 52.4334 128.711 55.1732C131.091 57.9131 128.179 76.3772 128.179 76.3772L128.837 91.3648C128.837 91.3648 128.13 101.749 126.016 104.141C123.902 106.533 118.37 112.4 122.278 109.593C135.984 99.7521 159.939 108.056 159.939 108.056L156.517 86.6407C156.517 86.6407 164.29 51.5786 161.222 48.6175C158.155 45.6564 155.26 45.2821 155.26 45.2821L151.992 38.7114Z" fill="#FF5252"/>
<path d="M84.5053 106.641C85.1505 106.518 85.7616 106.252 86.2954 105.862C86.8293 105.472 87.2729 104.967 87.5951 104.383C87.9172 103.799 88.1101 103.149 88.16 102.481C88.21 101.812 88.1158 101.14 87.8842 100.513L109.546 81.7362L101.609 79.2882L81.7815 97.9144C80.7756 98.3818 79.9724 99.2099 79.5242 100.242C79.076 101.274 79.0139 102.438 79.3496 103.514C79.6853 104.589 80.3956 105.502 81.3458 106.078C82.2961 106.655 83.4202 106.855 84.5053 106.641Z" fill="#FFB8B8"/>
<path d="M139.519 57.5265C139.519 57.5265 143.787 48.5956 133.57 50.1211C123.352 51.6467 84.6047 92.2537 84.6047 92.2537L91.0891 100.964L130.249 65.5145L139.519 57.5265Z" fill="#FF5252"/>
<path d="M122.88 42.3777L82.3689 95.403C81.6681 96.3233 81.3529 97.4899 81.4925 98.6472C81.6321 99.8045 82.2151 100.858 83.1136 101.577C92.5213 124.915 120.667 142.221 153.776 157.929C154.676 158.646 155.818 158.968 156.951 158.826C158.084 158.683 159.116 158.087 159.819 157.168L200.33 104.143C201.031 103.223 201.347 102.056 201.207 100.899C201.068 99.741 200.484 98.6874 199.585 97.9689C171.8 81.9398 147.919 63.3686 128.923 41.6169C128.022 40.9009 126.88 40.5789 125.748 40.7215C124.615 40.8641 123.584 41.4597 122.88 42.3777Z" fill="#E6E6E6"/>
<path d="M197.487 102.937L185.155 119.077C177.623 128.877 166.6 135.233 154.496 136.758C142.391 138.282 130.188 134.85 120.552 127.211L85.9944 99.6521C85.4824 99.2437 85.15 98.6444 85.0699 97.9859C84.9898 97.3274 85.1687 96.6633 85.5673 96.1393L124.713 44.9009C125.114 44.3786 125.701 44.0401 126.346 43.9596C126.991 43.879 127.64 44.0631 128.152 44.4713C145.633 67.5339 169.033 85.4811 197.063 99.4267C197.574 99.8353 197.906 100.434 197.985 101.092C198.065 101.75 197.885 102.413 197.487 102.937Z" fill="white"/>
<path d="M122.072 71.3244L114.041 81.8359C113.828 82.1144 113.515 82.2949 113.172 82.338C112.829 82.3811 112.483 82.2831 112.21 82.0656C111.937 81.8482 111.76 81.529 111.718 81.1782C111.675 80.8274 111.771 80.4738 111.983 80.195L120.014 69.6835C120.12 69.5453 120.251 69.4296 120.4 69.3432C120.549 69.2567 120.713 69.2012 120.884 69.1796C121.054 69.1581 121.226 69.1711 121.392 69.2178C121.557 69.2645 121.712 69.3441 121.847 69.4519C121.982 69.5597 122.095 69.6936 122.18 69.8461C122.264 69.9986 122.318 70.1666 122.339 70.3405C122.36 70.5144 122.347 70.6908 122.301 70.8597C122.256 71.0285 122.178 71.1864 122.072 71.3244H122.072Z" fill="#CCCCCC"/>
<path d="M137.135 63.5273L119.499 86.6114C119.394 86.7494 119.262 86.8649 119.113 86.9512C118.964 87.0375 118.8 87.0929 118.63 87.1143C118.46 87.1357 118.287 87.1227 118.122 87.076C117.957 87.0293 117.802 86.9498 117.667 86.842C117.532 86.7343 117.419 86.6004 117.334 86.448C117.25 86.2957 117.196 86.1278 117.175 85.954C117.154 85.7802 117.167 85.6039 117.212 85.4351C117.258 85.2663 117.336 85.1084 117.441 84.9704L135.077 61.8863C135.183 61.748 135.314 61.6322 135.463 61.5456C135.612 61.459 135.777 61.4033 135.947 61.3817C136.117 61.3601 136.29 61.3731 136.455 61.4198C136.621 61.4665 136.775 61.546 136.911 61.6539C137.046 61.7618 137.159 61.8958 137.244 62.0484C137.328 62.201 137.382 62.3691 137.403 62.5431C137.424 62.7171 137.411 62.8935 137.365 63.0624C137.319 63.2313 137.241 63.3893 137.135 63.5273H137.135Z" fill="#CCCCCC"/>
<path d="M107.056 102.031C111.804 102.031 115.653 98.099 115.653 93.2484C115.653 88.3977 111.804 84.4655 107.056 84.4655C102.308 84.4655 98.4596 88.3977 98.4596 93.2484C98.4596 98.099 102.308 102.031 107.056 102.031Z" fill="#FF5252"/>
<path d="M138.072 81.7715L116.411 110.123C116.185 110.359 115.882 110.501 115.56 110.522C115.238 110.544 114.92 110.444 114.665 110.241C114.411 110.038 114.239 109.747 114.181 109.422C114.123 109.098 114.185 108.764 114.353 108.482L136.014 80.1305C136.24 79.8953 136.543 79.7534 136.865 79.7317C137.187 79.71 137.505 79.8101 137.759 80.0129C138.014 80.2157 138.186 80.507 138.244 80.8314C138.301 81.1557 138.24 81.4903 138.072 81.7715Z" fill="#CCCCCC"/>
<path d="M152.123 75.2983L121.89 114.871C121.664 115.106 121.361 115.248 121.039 115.269C120.717 115.291 120.399 115.191 120.145 114.988C119.89 114.785 119.718 114.494 119.66 114.17C119.603 113.845 119.664 113.511 119.833 113.23L150.066 73.6573C150.292 73.4221 150.595 73.2802 150.916 73.2585C151.238 73.2368 151.557 73.3369 151.811 73.5397C152.066 73.7425 152.238 74.0339 152.295 74.3582C152.353 74.6825 152.292 75.0171 152.123 75.2983Z" fill="#CCCCCC"/>
<path d="M152.018 92.8939L130.358 121.246C130.132 121.481 129.829 121.623 129.507 121.645C129.185 121.666 128.866 121.566 128.612 121.363C128.358 121.161 128.185 120.869 128.128 120.545C128.07 120.221 128.131 119.886 128.3 119.605L149.961 91.2529C150.187 91.0178 150.49 90.8758 150.811 90.8541C151.133 90.8324 151.452 90.9325 151.706 91.1353C151.961 91.3381 152.133 91.6295 152.19 91.9538C152.248 92.2781 152.187 92.6128 152.018 92.8939Z" fill="#CCCCCC"/>
<path d="M180.679 96.3903L159.018 124.742C158.792 124.977 158.49 125.119 158.168 125.141C157.846 125.163 157.527 125.063 157.273 124.86C157.019 124.657 156.846 124.366 156.789 124.041C156.731 123.717 156.792 123.382 156.961 123.101L178.621 94.7493C178.848 94.5141 179.15 94.3721 179.472 94.3504C179.794 94.3288 180.113 94.4289 180.367 94.6317C180.621 94.8345 180.794 95.1258 180.851 95.4502C180.909 95.7745 180.848 96.1091 180.679 96.3903Z" fill="#FF5252"/>
<path d="M166.07 86.4206L135.837 125.993C135.611 126.228 135.308 126.37 134.986 126.392C134.664 126.413 134.346 126.313 134.091 126.111C133.837 125.908 133.665 125.616 133.607 125.292C133.55 124.968 133.611 124.633 133.779 124.352L164.012 84.7797C164.239 84.5445 164.541 84.4025 164.863 84.3808C165.185 84.3592 165.504 84.4592 165.758 84.6621C166.012 84.8649 166.185 85.1562 166.242 85.4806C166.3 85.8049 166.239 86.1395 166.07 86.4206Z" fill="#CCCCCC"/>
<path d="M130.46 21.9589C130.459 24.0924 130.971 26.1935 131.95 28.0777C132.93 29.962 134.347 31.5717 136.078 32.7657C137.809 33.9596 139.8 34.7013 141.876 34.9255C143.953 35.1498 146.052 34.8498 147.988 34.0519C149.925 33.254 151.641 31.9825 152.984 30.3492C154.327 28.7158 155.258 26.7705 155.694 24.6839C156.13 22.5974 156.057 20.4335 155.484 18.3821C154.91 16.3307 153.852 14.4546 152.403 12.9185L152.341 12.856C152.239 12.7464 152.137 12.637 152.03 12.5327C152.029 12.5327 152.029 12.5325 152.028 12.5323C152.027 12.532 152.027 12.5316 152.026 12.5312C152.026 12.5307 152.026 12.5301 152.025 12.5295C152.025 12.5288 152.025 12.5281 152.025 12.5274C151.892 12.4023 151.76 12.2772 151.622 12.1573C149.778 10.5061 147.508 9.43266 145.083 9.06558C142.658 8.69849 140.181 9.05328 137.948 10.0875C135.715 11.1217 133.821 12.7914 132.493 14.8969C131.165 17.0023 130.459 19.4542 130.46 21.9589V21.9589Z" fill="#2F2E41"/>
<path d="M146.36 35.9041C152.268 35.9041 157.058 31.0108 157.058 24.9746C157.058 18.9383 152.268 14.045 146.36 14.045C140.452 14.045 135.663 18.9383 135.663 24.9746C135.663 31.0108 140.452 35.9041 146.36 35.9041Z" fill="#FFB8B8"/>
<path d="M134.956 27.8873C133.91 23.0729 135.422 17.6792 138.717 14.4651C140.374 12.8805 142.436 11.8058 144.664 11.3645C146.892 10.9232 149.197 11.1333 151.314 11.9705C151.583 12.0814 151.852 12.2029 152.116 12.3296L152.239 12.3887V12.4071C152.263 12.4239 152.287 12.4417 152.31 12.4596C152.36 12.5073 152.421 12.5416 152.487 12.5592C153.416 12.5344 154.339 12.7104 155.197 13.0756C156.055 13.4409 156.827 13.9872 157.464 14.6787C159.122 16.5168 159.903 19.4871 159.663 23.0426L159.656 23.1538L159.563 23.2129C158.308 24.0256 157.005 24.7594 155.662 25.4101C150.966 27.6662 146.679 28.0842 142.558 26.6865L142.482 26.6608L140.753 23.6995C140.398 25.7419 140.588 32.5168 138.55 32.8838L135 28.0915L134.956 27.8873Z" fill="#2F2E41"/>
<path d="M112.437 37.4035C116.077 35.4838 111.395 28.5164 112.336 24.4428C113.277 20.3692 120.052 19.0589 120.483 14.8967C120.915 10.7345 121.93 6.44157 124.619 3.28325C126.336 1.26508 128.868 -0.224805 131.474 0.0279836C132.355 0.113511 133.209 0.392193 133.976 0.845047C134.742 1.2979 135.405 1.9143 135.917 2.65224C136.43 3.39018 136.781 4.23233 136.946 5.12134C137.112 6.01035 137.088 6.92534 136.876 7.80398C137.618 6.72982 139.538 6.96262 140.013 8.18444C140.436 9.27062 139.502 10.5863 138.404 10.6824C136.966 12.4962 135.32 14.421 133.068 14.7869C132.709 14.8711 132.336 14.8709 131.977 14.7863C131.619 14.7017 131.284 14.5349 130.997 14.2986C130.467 13.7788 130.426 12.7395 131.055 12.351C128.224 13.4996 126.565 16.626 126.145 19.7076C125.725 22.7893 126.306 25.9073 126.689 28.9939C127.072 32.0806 127.237 35.3276 126.052 38.194C124.653 41.5806 121.43 44.0079 117.914 44.7863C114.397 45.5647 110.652 44.8039 107.469 43.0899C104.286 41.3757 101.632 38.759 99.4632 35.8253C103.198 38.5351 108.366 39.5503 112.437 37.4035Z" fill="#2F2E41"/>
<path d="M141.25 24.268C137.51 30.8513 144.553 41.9436 137.454 44.247L138.039 43.6496C142.324 38.265 133.368 26.8682 137.653 21.4836C138.319 20.6938 138.89 19.8259 139.355 18.8983" fill="#2F2E41"/>
<path d="M135.456 27.7877C135.456 27.7877 138.625 15.7026 152.209 12.9132C152.224 12.9081 152.275 12.8872 152.341 12.856C152.382 12.8299 152.433 12.8038 152.484 12.7777C152.331 12.6891 152.183 12.6109 152.03 12.5326C152.029 12.5326 152.029 12.5325 152.028 12.5323C152.027 12.532 152.027 12.5316 152.026 12.5311C152.026 12.5306 152.026 12.5301 152.025 12.5294C152.025 12.5288 152.025 12.5281 152.025 12.5274C151.892 12.4023 151.76 12.2772 151.622 12.1573L151.234 12.1729C151.234 12.1729 137.604 9.9676 135.456 27.7877Z" fill="#FD6584"/>
<path d="M36.794 237.553C36.7938 237.611 36.8042 237.67 36.8246 237.724C36.845 237.778 36.8749 237.828 36.9126 237.869C36.9504 237.911 36.9952 237.944 37.0445 237.966C37.0939 237.989 37.1468 238 37.2001 238H281.298C281.406 238 281.509 237.953 281.585 237.869C281.661 237.785 281.704 237.671 281.704 237.553C281.704 237.434 281.661 237.32 281.585 237.236C281.509 237.152 281.406 237.105 281.298 237.105H37.2001C37.1467 237.105 37.0939 237.117 37.0445 237.139C36.9952 237.161 36.9503 237.194 36.9126 237.236C36.8749 237.278 36.845 237.327 36.8246 237.381C36.8042 237.436 36.7939 237.494 36.794 237.553Z" fill="#CCCCCC"/>
</g>
<defs>
<clipPath id="clip0_90_1134">
<rect width="307" height="238" fill="white"/>
</clipPath>
</defs>
</svg>
