<svg width="294" height="255" viewBox="0 0 294 255" fill="none" xmlns="http://www.w3.org/2000/svg">
<g clip-path="url(#clip0_90_977)">
<path d="M70.6109 167.839C70.6109 167.839 66.4739 153.124 71.3878 142.288C73.4757 137.758 74.1052 132.641 73.1818 127.704C72.7263 125.365 72.0673 123.074 71.2131 120.861" stroke="#535461" stroke-width="2" stroke-miterlimit="10"/>
<path d="M74.2675 114.013C74.2675 115.818 71.1475 121.047 71.1475 121.047C71.1475 121.047 68.0276 115.815 68.0276 114.013C68.0276 113.146 68.3563 112.315 68.9414 111.701C69.5265 111.088 70.3201 110.744 71.1475 110.744C71.975 110.744 72.7686 111.088 73.3537 111.701C73.9388 112.315 74.2675 113.146 74.2675 114.013Z" fill="#FF5252"/>
<path d="M79.4186 124.003C78.4826 125.517 73.1537 128.133 73.1537 128.133C73.1537 128.133 73.2504 121.966 74.1864 120.452C74.3993 120.07 74.6837 119.738 75.0225 119.475C75.3614 119.212 75.7476 119.024 76.1578 118.921C76.568 118.819 76.9938 118.805 77.4093 118.88C77.8249 118.955 78.2216 119.118 78.5755 119.358C78.9294 119.598 79.2332 119.911 79.4686 120.278C79.7039 120.644 79.8658 121.057 79.9446 121.491C80.0234 121.926 80.0174 122.372 79.927 122.804C79.8366 123.235 79.6636 123.643 79.4186 124.003Z" fill="#FF5252"/>
<path d="M79.1908 141.078C77.6527 141.889 71.7934 141.33 71.7934 141.33C71.7934 141.33 74.8478 136.059 76.3829 135.248C77.1158 134.901 77.9484 134.864 78.7068 135.145C79.4652 135.425 80.0908 136.002 80.453 136.755C80.8153 137.508 80.8863 138.378 80.6511 139.184C80.4159 139.99 79.8927 140.67 79.1908 141.081V141.078Z" fill="#FF5252"/>
<path d="M76.2456 153.955C74.8603 155.027 68.9948 155.511 68.9948 155.511C68.9948 155.511 71.1538 149.776 72.5391 148.703C73.2056 148.237 74.0176 148.058 74.807 148.202C75.5963 148.347 76.3024 148.804 76.7789 149.479C77.2554 150.154 77.4658 150.995 77.3665 151.829C77.2672 152.662 76.8658 153.423 76.2456 153.955Z" fill="#FF5252"/>
<path d="M66.6111 128.483C67.8591 129.738 73.5967 131.043 73.5967 131.043C73.5967 131.043 72.1896 125.056 70.9541 123.8C70.6666 123.474 70.3185 123.212 69.9313 123.031C69.5441 122.85 69.1257 122.754 68.7018 122.748C68.2779 122.743 67.8573 122.828 67.4658 122.998C67.0742 123.168 66.7199 123.42 66.4244 123.739C66.1289 124.057 65.8985 124.436 65.7471 124.851C65.5958 125.266 65.5268 125.709 65.5442 126.153C65.5617 126.597 65.6653 127.032 65.8488 127.433C66.0322 127.833 66.2916 128.191 66.6111 128.483Z" fill="#FF5252"/>
<path d="M63.3477 143.589C64.8858 144.4 70.7451 143.841 70.7451 143.841C70.7451 143.841 67.6906 138.57 66.1556 137.759C65.7882 137.544 65.3831 137.408 64.9645 137.362C64.5459 137.315 64.1226 137.357 63.72 137.486C63.3174 137.615 62.9439 137.828 62.622 138.112C62.3 138.396 62.0363 138.746 61.8467 139.14C61.6571 139.534 61.5455 139.964 61.5187 140.404C61.4918 140.845 61.5503 141.286 61.6905 141.702C61.8308 142.118 62.0499 142.5 62.3347 142.825C62.6194 143.15 62.964 143.411 63.3477 143.593V143.589Z" fill="#FF5252"/>
<path d="M62.0966 158.729C63.4818 159.801 69.3473 160.285 69.3473 160.285C69.3473 160.285 67.1883 154.55 65.8031 153.477C65.1365 153.011 64.3245 152.832 63.5351 152.976C62.7458 153.121 62.0398 153.578 61.5633 154.253C61.0867 154.928 60.8763 155.769 60.9756 156.603C61.0749 157.436 61.4763 158.197 62.0966 158.729Z" fill="#FF5252"/>
<path d="M21.2282 152.526C31.5522 154.815 41.4424 158.922 51.7289 161.397C62.0154 163.872 73.1287 164.621 82.8536 160.324C87.1155 158.441 91.0061 155.632 95.4396 154.246C106.509 150.776 117.988 156.705 128.764 161.073C142.832 166.771 157.71 169.966 172.783 170.526C180.365 170.804 188.449 170.252 194.642 165.658C196.863 164.023 198.77 161.884 201.156 160.511C205.871 157.797 211.764 158.435 216.797 160.387C221.829 162.339 226.39 165.475 231.308 167.757C243.934 173.616 258.308 173.58 271.533 177.74C276.632 179.34 281.528 181.575 286.119 184.397C288.877 186.098 291.644 188.167 292.952 191.231C295.448 197.117 291.601 203.84 287.127 208.261C277.233 218.031 264.008 223.018 251.185 227.749L209.243 243.215C201.318 246.139 193.369 249.072 185.16 250.962C176.711 252.904 168.069 253.725 159.439 254.349C142.046 255.611 123.625 255.886 108.341 247.097C98.9214 241.679 90.9593 232.955 80.47 230.509C71.8215 228.495 62.7517 231.11 53.9722 229.881C42.603 228.289 32.9624 220.48 24.6446 212.198C17.1567 204.726 10.118 196.502 5.49738 186.794C1.80647 179.041 -1.55061 167.829 0.755035 159.115C3.13868 150.132 13.8651 150.891 21.2282 152.526Z" fill="#00111E"/>
<path d="M59.7254 187.742L59.5632 187.922C59.3838 188.118 59.1874 188.297 58.9766 188.455C57.6943 189.403 56.5087 188.896 55.4386 187.893C54.3684 186.889 53.7756 185.738 54.5026 184.322C54.6221 184.091 54.7621 183.872 54.9207 183.668C54.983 183.586 55.0517 183.501 55.1234 183.416C55.4437 183.047 55.7968 182.711 56.178 182.412C56.4604 182.188 56.7552 181.982 57.0609 181.794C57.3286 181.63 57.6046 181.482 57.8877 181.35C58.3149 181.145 58.7629 180.993 59.2231 180.895C59.9968 180.738 60.6895 180.82 61.1418 181.245C61.5942 181.67 61.7409 182.36 61.6847 183.171C61.6498 183.615 61.5693 184.053 61.4445 184.479C61.3169 184.927 61.1563 185.365 60.964 185.787C60.833 186.071 60.6895 186.349 60.5366 186.614C60.2992 187.015 60.0277 187.393 59.7254 187.742Z" fill="#B65256"/>
<path d="M61.4351 184.472C60.5834 183.279 59.3291 181.857 57.8784 181.343C58.3055 181.139 58.7535 180.986 59.2137 180.889C59.9344 181.216 60.8049 181.87 61.6753 183.178C61.6395 183.617 61.559 184.051 61.4351 184.472Z" fill="#B66F7B"/>
<path d="M60.5272 186.598C59.7535 185.326 58.1342 183.037 56.1593 182.406C56.4416 182.182 56.7365 181.975 57.0422 181.788C58.0437 182.049 59.56 182.945 60.9422 185.771C60.8236 186.055 60.6801 186.333 60.5272 186.598Z" fill="#B66F7B"/>
<path d="M54.4963 184.322C56.4869 184.839 58.1529 187.118 58.9797 188.455C59.1905 188.297 59.3869 188.118 59.5663 187.922C57.8035 184.204 55.8036 183.691 54.9175 183.671L54.4963 184.322Z" fill="#B66F7B"/>
<g opacity="0.1">
<path d="M168.353 234.642C168.041 233.873 167.592 233.308 166.996 233.144C166.4 232.981 165.723 233.242 165.08 233.766C164.702 234.081 164.36 234.441 164.06 234.838C163.86 235.099 163.673 235.37 163.501 235.652C163.305 235.974 163.127 236.309 162.968 236.653C162.752 237.114 162.579 237.596 162.45 238.092C162.422 238.203 162.397 238.314 162.378 238.419C162.324 238.685 162.293 238.957 162.288 239.229C162.263 240.864 163.339 241.649 164.749 242.038C166.16 242.427 167.492 242.316 168.244 240.819C168.371 240.571 168.475 240.312 168.556 240.044C168.578 239.965 168.603 239.883 168.621 239.798C168.736 239.324 168.809 238.839 168.84 238.35C168.862 238.023 168.871 237.696 168.865 237.369C168.853 236.891 168.806 236.414 168.724 235.943C168.645 235.497 168.521 235.061 168.353 234.642Z" fill="url(#paint0_linear_90_977)"/>
</g>
<g opacity="0.1">
<path d="M275.982 184.541C275.886 184.333 275.771 184.135 275.639 183.949L275.517 183.782C275.276 183.47 275.007 183.181 274.716 182.919C274.525 182.746 274.322 182.592 274.113 182.425C273.805 182.198 273.481 181.996 273.143 181.821C272.82 181.651 272.48 181.518 272.129 181.425C271.505 181.261 270.909 181.297 270.513 181.631C270.117 181.964 269.948 182.566 269.964 183.266C269.978 183.684 270.038 184.098 270.142 184.502C270.208 184.769 270.288 185.032 270.382 185.29C270.489 185.585 270.613 185.873 270.753 186.153C270.939 186.531 271.158 186.889 271.408 187.222C271.465 187.298 271.524 187.366 271.58 187.435C271.722 187.604 271.878 187.758 272.048 187.896C273.081 188.727 274.098 188.354 275.037 187.569C275.976 186.784 276.563 185.8 275.982 184.541Z" fill="url(#paint1_linear_90_977)"/>
</g>
<g opacity="0.1">
<path d="M152.866 208.306L149.012 205.612C149.965 206.946 151.325 207.897 152.866 208.306Z" fill="url(#paint2_linear_90_977)"/>
</g>
<path d="M282.5 125.89C286.362 140.692 269.886 182.864 269.886 182.864C269.886 182.864 235.22 155.358 231.354 140.555C230.343 137.006 230.019 133.281 230.401 129.598C230.783 125.916 231.864 122.351 233.579 119.112C235.294 115.874 237.61 113.028 240.39 110.741C243.17 108.453 246.358 106.772 249.767 105.794C253.176 104.817 256.737 104.563 260.24 105.049C263.744 105.534 267.12 106.748 270.17 108.621C273.219 110.493 275.881 112.985 277.998 115.95C280.116 118.916 281.646 122.295 282.5 125.89Z" fill="#FF5252"/>
<path opacity="0.1" d="M282.5 125.89C286.362 140.692 269.886 182.864 269.886 182.864C269.886 182.864 235.22 155.358 231.354 140.555C230.343 137.006 230.019 133.281 230.401 129.598C230.783 125.916 231.864 122.351 233.579 119.112C235.294 115.874 237.61 113.028 240.39 110.741C243.17 108.453 246.358 106.772 249.767 105.794C253.176 104.817 256.737 104.563 260.24 105.049C263.744 105.534 267.12 106.748 270.17 108.621C273.219 110.493 275.881 112.985 277.998 115.95C280.116 118.916 281.646 122.295 282.5 125.89Z" fill="black"/>
<path d="M250.074 106.506C250.074 106.506 271.655 140.65 270.042 182.949" stroke="#535461" stroke-miterlimit="10"/>
<path d="M288.022 152.944C288.022 152.944 268.454 141.788 270.931 182.972C270.931 182.972 287.255 182.36 293.048 168.404C294.181 165.69 294.325 162.635 293.451 159.817C292.578 156.999 290.748 154.616 288.309 153.118L288.022 152.944Z" fill="#24FF7C"/>
<path d="M288.334 153.007C288.334 153.007 285.807 174.385 270.922 182.962" stroke="#535461" stroke-miterlimit="10"/>
<path d="M188.995 86.3014L181.656 88.054L178.368 88.5903C177.114 88.8067 175.832 88.7582 174.597 88.4476C173.361 88.1371 172.197 87.5708 171.173 86.7821C168.587 84.7384 166.625 81.0075 170.687 74.5266C178.075 62.7551 180 58.707 174.861 54.332C173.925 53.521 172.824 52.697 171.679 51.9155C173.142 51.5003 174.58 50.9346 175.604 49.7901C176.356 48.9498 176.811 47.874 177.254 46.8211L180.424 39.2645C181.31 37.1521 182.209 34.9875 182.355 32.6888C182.377 32.3324 182.377 31.9727 182.355 31.6163C182.405 29.7721 182.006 27.9409 181.603 26.1392L179.794 18.0496C179.592 16.912 179.234 15.8108 178.733 14.7797C178.23 13.943 177.631 13.1743 176.948 12.4908L173.878 9.13924C169.822 4.71185 165.058 -0.0425267 159.215 0.0326801C157.174 0.058839 155.193 0.686651 153.243 1.31446L145.025 3.90093C143.777 4.29658 142.529 4.71512 141.531 5.59144C139.347 7.55336 139.266 11.0423 137.712 13.5666C135.696 16.8365 131.197 18.5662 130.823 22.441C130.801 22.7174 130.801 22.9952 130.823 23.2716C130.655 25.8875 132.53 28.2647 132.695 30.8642C132.601 32.4762 131.809 34.0327 131.924 35.6284C131.902 35.9303 131.909 36.2338 131.946 36.5341C132.046 37.296 132.361 38.0186 132.439 38.7805C132.321 40.0198 131.553 41.0694 130.767 42.1419C125.759 42.6063 120.976 44.6009 119.788 49.0773C118.181 55.1364 99.3925 77.5251 99.3925 77.5251L94.8967 79.8957C94.8967 79.8957 83.3341 69.4616 82.6914 77.875C82.0487 86.2883 91.0404 94.7049 98.7498 90.3299C98.7498 90.3299 107.108 87.4099 114.112 85.0163C115.735 84.4625 117.217 83.533 118.45 82.2967C119.682 81.0604 120.633 79.5491 121.232 77.875L122.296 89.0121C122.296 89.0121 111.844 101.156 109.901 121.534C109.704 123.581 109.589 125.716 109.589 127.927C109.531 134.791 110.423 141.627 112.237 148.223L126.046 150.917C126.046 150.917 126.312 150.976 126.783 151.064C130.077 157.352 134.074 165.51 134.074 168.084C134.074 168.084 137.927 177.508 136.963 181.212C136.027 184.845 131.054 194.318 133.3 206.763L130.215 235.181L136.938 236.888L136.963 237.088H137.731L138.021 237.16L138.039 237.088H144.701L145.39 237.693C145.362 237.483 145.328 237.284 145.29 237.088H145.315C145.395 234.534 145.94 232.02 146.922 229.681C146.922 229.681 145.986 217.773 147.265 206.675C148.794 202.636 150.625 198.892 152.772 196.228L159.854 184.172C159.854 184.172 164.934 175.484 163.483 164.778C163.4 164.126 163.413 163.464 163.523 162.816C163.554 162.63 163.523 162.597 163.523 162.597C163.523 162.597 163.76 150.845 162.946 144.184C165.483 141.143 168.125 140.153 168.125 140.153C168.125 140.153 168.072 139.96 167.975 139.613C168.175 139.522 168.287 139.479 168.287 139.479C168.287 139.479 161.863 115.917 155.761 113.562C155.761 113.562 153.393 103.632 154.756 97.2129C154.947 96.4596 155.23 95.7353 155.599 95.0581L155.792 94.8063C156.56 96.402 159.626 102 164.593 101.117C170.375 100.107 184.184 96.0685 184.184 96.0685C184.184 96.0685 184.146 95.8102 184.096 95.3883C186.258 94.8357 189.25 94.1818 190.608 94.3845C192.857 94.7115 204.095 89.3358 201.84 83.267C199.584 77.1981 188.995 86.3014 188.995 86.3014Z" fill="url(#paint3_linear_90_977)"/>
<path d="M168.584 236.411C168.562 236.493 168.54 236.574 168.518 236.65C168.443 236.909 168.345 237.161 168.225 237.402C167.495 238.857 166.219 238.971 164.831 238.589C163.442 238.206 162.413 237.464 162.441 235.858C162.446 235.593 162.475 235.329 162.528 235.07C162.547 234.966 162.572 234.861 162.6 234.743C162.724 234.261 162.893 233.792 163.102 233.344C163.256 233.006 163.429 232.679 163.62 232.363C163.787 232.089 163.968 231.825 164.163 231.571C164.455 231.186 164.788 230.838 165.155 230.532C165.779 230.025 166.428 229.766 167.027 229.93C167.626 230.093 168.047 230.64 168.347 231.385C168.509 231.798 168.628 232.227 168.702 232.667C168.781 233.125 168.826 233.588 168.837 234.053C168.837 234.38 168.837 234.684 168.815 234.995C168.779 235.473 168.702 235.947 168.584 236.411Z" fill="#FFD77C"/>
<path d="M168.69 232.683C167.414 232.029 165.685 231.375 164.163 231.591C164.455 231.206 164.788 230.857 165.155 230.551C165.938 230.499 166.999 230.669 168.334 231.405C168.496 231.816 168.616 232.245 168.69 232.683Z" fill="#FFC950"/>
<path d="M168.802 235.011C167.554 234.249 165.124 232.981 163.105 233.354C163.259 233.016 163.432 232.688 163.623 232.373C164.628 232.127 166.366 232.206 168.824 234.06C168.84 234.384 168.84 234.701 168.802 235.011Z" fill="#FFC950"/>
<path d="M162.444 235.858C164.441 235.371 166.912 236.607 168.228 237.402C168.348 237.161 168.446 236.909 168.521 236.65C165.339 234.181 163.333 234.688 162.531 235.07L162.444 235.858Z" fill="#FFC950"/>
<path d="M273.109 181.807L273.227 181.971C273.355 182.15 273.467 182.342 273.561 182.543C274.123 183.766 273.561 184.711 272.644 185.486C271.727 186.261 270.741 186.614 269.739 185.813C269.574 185.679 269.422 185.529 269.284 185.365C269.228 185.3 269.171 185.231 269.115 185.159C268.876 184.835 268.667 184.488 268.491 184.123C268.355 183.851 268.234 183.572 268.129 183.285C268.038 183.035 267.96 182.78 267.895 182.52C267.795 182.128 267.737 181.726 267.724 181.32C267.724 180.637 267.864 180.058 268.257 179.731C268.65 179.404 269.193 179.371 269.817 179.528C270.158 179.618 270.489 179.747 270.803 179.911C271.129 180.082 271.442 180.278 271.739 180.5C271.942 180.65 272.138 180.81 272.323 180.977C272.608 181.228 272.871 181.506 273.109 181.807Z" fill="#CECEE0"/>
<path opacity="0.3" d="M270.8 179.901C269.758 180.464 268.485 181.343 267.883 182.517C267.782 182.125 267.725 181.723 267.711 181.317C268.241 180.528 268.969 179.908 269.814 179.525C270.155 179.613 270.485 179.739 270.8 179.901Z" fill="white"/>
<path opacity="0.3" d="M272.329 180.967C271.237 181.454 269.234 182.527 268.476 184.113C268.339 183.841 268.218 183.562 268.114 183.276C268.454 182.455 269.362 181.284 271.742 180.486C271.948 180.64 272.145 180.8 272.329 180.967Z" fill="white"/>
<path opacity="0.3" d="M269.739 185.807C270.413 184.172 272.413 183.066 273.561 182.537C273.467 182.336 273.355 182.144 273.227 181.964C270.107 182.965 269.424 184.6 269.281 185.352L269.739 185.807Z" fill="white"/>
<path d="M181.26 88.9893L188.389 87.2824C188.389 87.2824 198.685 78.4538 200.869 84.3395C203.053 90.2253 192.133 95.457 189.949 95.13C187.765 94.8031 181.213 96.765 181.213 96.765L181.26 88.9893Z" fill="#FCC1CB"/>
<path d="M168.422 27.7742H141.59V55.895H168.422V27.7742Z" fill="#855A61"/>
<path opacity="0.15" d="M168.422 27.7742H141.59V55.895H168.422V27.7742Z" fill="black"/>
<path d="M138.139 139.793C138.139 139.793 144.576 161.95 143.621 166.083C143.621 166.083 145.203 175.892 143.487 179.162C141.771 182.432 134.788 190.41 134.423 203.104L131.303 231.918L138.885 233.844C139.514 231.451 140.574 229.207 142.008 227.232C142.008 227.232 145.549 203.572 153.202 194.076L160.082 182.363C160.082 182.363 165.015 173.924 163.608 163.526C163.526 162.89 163.538 162.245 163.645 161.613C163.673 161.433 163.645 161.4 163.645 161.4C163.645 161.4 163.982 144.665 162.438 140.234C160.893 135.804 138.139 139.793 138.139 139.793Z" fill="#FCC1CB"/>
<path opacity="0.05" d="M138.139 139.793C138.139 139.793 144.576 161.95 143.621 166.083C143.621 166.083 145.203 175.892 143.487 179.162C141.771 182.432 134.788 190.41 134.423 203.104L131.303 231.918L138.885 233.844C139.514 231.451 140.574 229.207 142.008 227.232C142.008 227.232 145.549 203.572 153.202 194.076L160.082 182.363C160.082 182.363 165.015 173.924 163.608 163.526C163.526 162.89 163.538 162.245 163.645 161.613C163.673 161.433 163.645 161.4 163.645 161.4C163.645 161.4 163.982 144.665 162.438 140.234C160.893 135.804 138.139 139.793 138.139 139.793Z" fill="black"/>
<path opacity="0.1" d="M124.118 142.543C124.118 142.543 135.35 162.489 135.35 166.74C135.35 166.74 139.094 175.896 138.158 179.492C137.222 183.089 132.23 192.572 134.726 204.997L138.158 233.772H145.958C146.035 231.292 146.565 228.85 147.518 226.578C147.518 226.578 145.646 202.708 150.95 191.591L155.006 178.511C155.006 178.511 157.96 168.911 154.095 159.056C153.872 158.485 153.757 157.874 153.758 157.257C153.758 157.257 150.326 140.908 147.83 136.984C145.334 133.06 124.118 142.543 124.118 142.543Z" fill="black"/>
<path d="M123.806 142.543C123.806 142.543 135.038 162.489 135.038 166.74C135.038 166.74 138.782 175.896 137.846 179.492C136.91 183.089 131.918 192.572 134.414 204.997L137.846 233.772H145.646C145.723 231.292 146.253 228.85 147.206 226.578C147.206 226.578 145.334 202.708 150.638 191.591L154.694 178.511C154.694 178.511 157.648 168.911 153.783 159.056C153.56 158.485 153.445 157.874 153.446 157.257C153.446 157.257 150.014 140.908 147.518 136.984C145.022 133.06 123.806 142.543 123.806 142.543Z" fill="#FCC1CB"/>
<path d="M162.494 36.9265C162.494 36.9265 159.374 49.025 160.934 52.6218C162.494 56.2187 155.942 68.6441 155.942 68.6441L146.894 44.4472C148.859 41.1317 149.53 37.1499 148.766 33.3297L162.494 36.9265Z" fill="#FCC1CB"/>
<path d="M147.05 44.614C147.05 44.614 143.15 45.1045 136.91 44.4505C130.67 43.7965 122.714 45.2679 121.154 51.1537C119.594 57.0394 101.343 78.784 101.343 78.784L96.9746 81.0729C96.9746 81.0729 98.8466 86.6317 100.719 91.2095C100.719 91.2095 108.83 88.3712 115.644 86.0496C117.22 85.5108 118.66 84.607 119.857 83.4052C121.054 82.2035 121.977 80.7346 122.558 79.1077L123.806 92.1872L152.51 97.7459L155.942 95.13C155.942 95.13 159.062 102.651 164.678 101.67C170.294 100.689 183.709 96.765 183.709 96.765C183.709 96.765 182.773 90.2253 183.709 88.5903L178.065 89.4993C176.848 89.7095 175.602 89.6625 174.402 89.3609C173.202 89.0594 172.071 88.5094 171.077 87.7434C168.562 85.7554 166.659 82.1323 170.606 75.8379C177.782 64.3934 179.653 60.4695 174.662 56.2187C169.67 51.9679 160.778 47.5536 160.778 47.5536L155.942 64.0664L147.05 44.614Z" fill="#FF5252"/>
<path opacity="0.1" d="M140.342 43.7932L134.361 44.9475C134.361 44.9475 148.766 76.8188 140.342 95.13C140.342 95.13 127.12 93.8777 123.591 90.5816C123.591 90.5816 104.462 112.787 113.822 147.448L127.238 150.064C127.238 150.064 137.846 152.353 142.838 150.064C147.83 147.775 151.262 149.41 151.262 149.41C151.262 149.41 158.126 152.353 160.934 146.794C163.742 141.235 168.11 139.6 168.11 139.6C168.11 139.6 161.87 116.711 155.942 114.422C155.942 114.422 152.822 101.343 155.942 95.784L157.19 94.1491C157.19 94.1491 167.174 89.8982 165.614 74.8569L165.302 48.698L162.494 48.044C162.494 48.044 163.742 75.8378 155.942 73.5489C148.142 71.26 140.342 43.7932 140.342 43.7932Z" fill="black"/>
<path d="M168.11 138.946C168.11 138.946 163.742 140.581 160.934 146.14C158.126 151.699 151.262 148.756 151.262 148.756C151.262 148.756 147.83 147.121 142.838 149.41C137.846 151.699 127.238 149.41 127.238 149.41L113.822 146.794C112.948 143.576 112.289 140.298 111.847 136.984C111.508 134.417 111.311 131.832 111.258 129.241C111.205 126.664 111.302 124.086 111.548 121.521C113.439 101.719 123.591 89.9277 123.591 89.9277L123.669 89.9964C123.809 90.1224 123.956 90.2403 124.109 90.3495C124.255 90.4574 124.421 90.5588 124.583 90.6601C129.101 93.4134 140.342 94.4761 140.342 94.4761C148.766 76.1649 134.361 44.2935 134.361 44.2935L140.342 43.1393C140.342 43.1393 148.142 70.6061 155.942 72.895C163.742 75.1839 162.494 47.3901 162.494 47.3901L165.302 48.0441L165.614 74.2029C167.174 89.2443 157.19 93.4951 157.19 93.4951L155.942 95.1301C152.822 100.689 155.942 113.768 155.942 113.768C161.87 116.057 168.11 138.946 168.11 138.946Z" fill="#C3C7E1"/>
<path d="M96.9746 81.0696C96.9746 81.0696 85.7427 70.933 85.1187 79.1077C84.4947 87.2823 93.2306 95.457 100.719 91.2062L96.9746 81.0696Z" fill="#FCC1CB"/>
<path opacity="0.1" d="M147.624 42.9987C149.606 44.2851 151.874 45.0077 154.205 45.0955C156.535 45.1832 158.846 44.6329 160.912 43.499C161.483 40.2782 162.175 37.5838 162.175 37.5838L148.448 33.9869C149.031 37.01 148.745 40.1467 147.624 42.9987Z" fill="black"/>
<path opacity="0.1" d="M124.586 59.6553C124.586 59.6553 125.522 65.8681 122.402 75.3507L124.586 59.6553Z" fill="black"/>
<path opacity="0.1" d="M128.018 77.6395C128.018 77.6395 133.634 84.5062 139.25 86.1412L128.018 77.6395Z" fill="black"/>
<path opacity="0.1" d="M105.242 77.6395C105.242 77.6395 110.858 77.9665 114.29 75.3506C117.722 72.7347 118.97 77.6395 118.97 77.6395" fill="black"/>
<path opacity="0.1" d="M155.942 114.422C153.118 114.802 150.345 115.515 147.674 116.548C143.618 118.183 134.258 116.875 133.634 114.259" fill="black"/>
<g opacity="0.1">
<path d="M154.538 72.895C155.072 73.0655 155.641 73.0723 156.179 72.9146L156.098 72.895C148.298 70.6061 140.498 43.1393 140.498 43.1393L139.019 43.4238C139.871 46.3372 147.203 70.7467 154.538 72.895Z" fill="black"/>
<path d="M138.938 94.4761L139.01 94.3093C135.453 93.8712 126.546 92.5436 123.747 89.9277C123.747 89.9277 123.535 90.1762 123.167 90.6536C127.675 93.4134 138.938 94.4761 138.938 94.4761Z" fill="black"/>
<path d="M141.434 149.41C139.946 150.093 137.961 150.365 135.905 150.417C138.489 150.482 141.131 150.263 142.994 149.41C144.403 148.747 145.91 148.345 147.449 148.22C145.381 148.095 143.316 148.504 141.434 149.41Z" fill="black"/>
<path d="M156.098 113.768C156.098 113.768 152.978 100.689 156.098 95.13L157.346 93.4951C157.346 93.4951 167.33 89.2443 165.77 74.2029L165.458 48.044L162.65 47.3901C162.65 47.3901 162.65 47.5209 162.65 47.7563L163.898 48.044L164.21 74.2029C165.77 89.2443 155.786 93.4951 155.786 93.4951L154.538 95.13C151.418 100.689 154.538 113.768 154.538 113.768C160.466 116.057 166.706 138.946 166.706 138.946C166.706 138.946 162.338 140.581 159.53 146.14C158.335 148.507 156.41 149.331 154.578 149.498C156.762 149.684 159.542 149.204 161.09 146.14C163.898 140.581 168.266 138.946 168.266 138.946C168.266 138.946 162.026 116.057 156.098 113.768Z" fill="black"/>
</g>
<path d="M155.006 44.4504C162.415 44.4504 168.422 38.1554 168.422 30.39C168.422 22.6247 162.415 16.3297 155.006 16.3297C147.596 16.3297 141.59 22.6247 141.59 30.39C141.59 38.1554 147.596 44.4504 155.006 44.4504Z" fill="#FCC1CB"/>
<path opacity="0.1" d="M161.211 22.9871C161.729 22.5849 162.091 21.9048 162.721 21.7642C162.961 21.7334 163.203 21.7591 163.432 21.8395C163.66 21.9198 163.868 22.0528 164.041 22.2285C165.561 23.5724 165.545 26.0248 165.096 28.0554C164.646 30.086 163.885 32.1656 164.353 34.1897C164.531 34.9516 164.88 35.6905 164.827 36.4786C164.718 38.1135 162.927 39.1697 162.643 40.7948C162.36 42.4199 163.626 44.1529 162.893 45.5949C162.612 46.1475 162.085 46.517 161.757 47.0435C160.456 49.1329 162.927 51.5821 163.289 54.0475C163.358 54.5119 163.367 55.0285 163.695 55.3555C164.082 55.7413 164.703 55.6334 165.221 55.5026L170.5 54.1652C172.269 53.7173 174.147 53.2072 175.392 51.8142C176.122 51 176.565 49.9537 176.995 48.9302L180.072 41.5861C180.933 39.5359 181.803 37.4334 181.944 35.1968C182.068 33.2741 181.632 31.3645 181.226 29.4909L179.469 21.6432C179.274 20.5342 178.927 19.4604 178.44 18.4551C177.952 17.6401 177.371 16.8911 176.708 16.2251L173.726 12.9552C169.776 8.65861 165.152 4.04156 159.461 4.1135C157.48 4.13966 155.555 4.76747 153.658 5.35932L145.674 7.91635C144.473 8.30219 143.234 8.70765 142.279 9.55128C140.161 11.4445 140.096 14.8452 138.57 17.2976C136.614 20.4759 132.243 22.1533 131.878 25.9202C131.609 28.6898 133.79 31.1879 133.7 33.9706C133.643 35.6611 132.745 37.283 132.963 38.9604C133.066 39.7452 133.409 40.4874 133.456 41.2787C133.584 43.4663 131.534 45.026 130.573 46.9716C130.339 47.3741 130.243 47.8478 130.299 48.3155C130.436 49.0119 131.088 49.4436 131.697 49.7509C134.156 50.9992 136.888 51.5387 139.612 51.3139C140.487 51.291 141.342 51.0272 142.089 50.5488C143.284 49.6725 143.699 47.9852 143.609 46.4582C143.518 44.9312 143.022 43.4663 142.785 41.9556C141.78 35.6251 145.312 29.5596 148.916 24.3703C150.544 22.0291 152.201 20.4955 154.971 21.4274C156.762 21.9996 159.314 24.4586 161.211 22.9871Z" fill="black"/>
<path d="M161.211 22.3331C161.729 21.9309 162.091 21.2508 162.721 21.1102C162.961 21.0794 163.203 21.1051 163.432 21.1855C163.66 21.2658 163.868 21.3988 164.041 21.5745C165.561 22.9184 165.545 25.3708 165.096 27.4014C164.646 29.432 163.885 31.5116 164.353 33.5357C164.531 34.2976 164.88 35.0365 164.827 35.8246C164.718 37.4595 162.927 38.5157 162.643 40.1408C162.36 41.7659 163.626 43.4989 162.893 44.9409C162.612 45.4936 162.085 45.8631 161.757 46.3895C160.456 48.4789 162.927 50.9281 163.289 53.3935C163.358 53.8579 163.367 54.3745 163.695 54.7015C164.082 55.0873 164.703 54.9794 165.221 54.8486L170.5 53.5113C172.269 53.0633 174.147 52.5532 175.392 51.1602C176.122 50.346 176.565 49.2997 176.995 48.2762L180.072 40.9321C180.933 38.8819 181.803 36.7794 181.944 34.5428C182.068 32.6201 181.632 30.7105 181.226 28.8369L179.469 20.9892C179.274 19.8802 178.927 18.8064 178.44 17.8011C177.952 16.9861 177.371 16.2371 176.708 15.5711L173.726 12.3012C169.776 8.00461 165.152 3.38757 159.461 3.45951C157.48 3.48567 155.555 4.11348 153.658 4.70533L145.674 7.26236C144.473 7.6482 143.234 8.05366 142.279 8.89729C140.161 10.7905 140.096 14.1912 138.57 16.6436C136.614 19.8219 132.243 21.4993 131.878 25.2662C131.609 28.0358 133.79 30.534 133.7 33.3166C133.643 35.0071 132.745 36.629 132.963 38.3064C133.066 39.0912 133.409 39.8334 133.456 40.6247C133.584 42.8123 131.534 44.372 130.573 46.3176C130.339 46.7201 130.243 47.1939 130.299 47.6615C130.436 48.358 131.088 48.7896 131.697 49.0969C134.156 50.3453 136.888 50.8847 139.612 50.6599C140.487 50.637 141.342 50.3732 142.089 49.8948C143.284 49.0185 143.699 47.3312 143.609 45.8042C143.518 44.2772 143.022 42.8123 142.785 41.3016C141.78 34.9711 145.312 28.9056 148.916 23.7163C150.544 21.3751 152.201 19.8415 154.971 20.7734C156.762 21.3456 159.314 23.8046 161.211 22.3331Z" fill="#855A61"/>
<path opacity="0.1" d="M120.842 104.779C117.473 113.474 114.212 118.555 111.548 121.524C113.439 101.722 123.591 89.931 123.591 89.931L123.669 89.9996C123.788 94.1262 123.064 99.0539 120.842 104.779Z" fill="black"/>
<path opacity="0.1" d="M149.546 203.202C150.472 204.497 151.793 205.42 153.29 205.818L149.546 203.202Z" fill="black"/>
<path opacity="0.1" d="M138.598 227.844C138.598 227.844 145.225 228.141 146.03 234.364L138.598 227.844Z" fill="black"/>
<path d="M159.311 219.97L153.268 213.636V205.789C153.268 205.789 159.255 207.554 159.82 199.318L154.02 193.432C152.791 192.199 139.852 179.918 124.38 193.53H144.972C143.68 195.194 142.304 197.905 143.921 200.688C146.538 205.197 139.397 215.271 136.252 217.747C133.59 219.839 129.007 225.185 128.024 226.343C127.827 225.86 127.592 225.396 127.322 224.953C124.986 221.183 119.289 223.456 120.081 227.873C120.186 228.506 120.445 229.099 120.833 229.596C121.168 230.006 121.585 230.334 122.055 230.556C122.525 230.778 123.035 230.889 123.55 230.882H126.783C126.408 234.478 127.207 239.383 133.444 241.469H153.461C153.461 241.469 154.023 235.584 146.167 234.41C146.167 234.41 153.836 234.214 153.461 221.471C153.461 221.471 155.521 224.018 157.764 223.237V226.775C157.764 226.775 161.489 226.023 160.665 222.422C160.438 221.49 159.969 220.641 159.311 219.97Z" fill="white"/>
<path d="M229.417 97.5792H225.252C225.083 93.1687 223.467 88.9544 220.677 85.6484C217.886 82.3424 214.092 80.1475 209.936 79.4347C211.336 79.0472 212.67 78.4326 213.889 77.6134C216.385 75.8248 216.45 73.1664 215.037 72.3816C213.624 71.5969 210.472 72.4634 208.772 74.7327C208.211 75.4743 207.819 76.3397 207.624 77.2635C207.429 76.3397 207.036 75.4743 206.476 74.7327C204.775 72.4634 201.624 71.5805 200.211 72.3816C198.798 73.1828 198.857 75.8412 201.359 77.6134C202.481 78.372 203.703 78.9516 204.988 79.3334C200.685 79.8867 196.711 82.0249 193.775 85.3661C190.838 88.7072 189.131 93.0337 188.957 97.5726H185.113V103.436H189.353L189.491 104.469H189.647L190.923 110.901L192.152 117.113L193.4 123.418H220.812L221.595 119.461L222.734 113.713L224.568 104.466H225.361L225.498 103.432H229.417V97.5792ZM207.106 80.6642C215.82 80.6642 222.955 88.1849 223.33 97.5792H221.049C221.146 97.3176 221.236 97.056 221.308 96.7944C221.435 96.3447 221.517 95.8822 221.551 95.4145C221.611 94.5611 221.452 93.8287 220.996 93.3872C220.541 92.9458 219.826 92.8542 219.037 93.0177C218.566 93.1206 218.108 93.2809 217.673 93.4951C217.524 93.5671 217.361 93.6455 217.227 93.7273L217.177 93.6979C216.857 93.5252 216.519 93.3904 216.169 93.2957C215.545 93.1289 214.959 93.1682 214.566 93.5082C214.363 93.6916 214.215 93.9322 214.138 94.2014C213.914 93.8079 213.562 93.5128 213.146 93.3709C212.547 93.2008 211.883 93.4722 211.246 94.0052C210.87 94.3288 210.529 94.6963 210.232 95.1006C210.034 95.3679 209.85 95.6463 209.68 95.9344C209.485 96.2646 209.309 96.6063 209.153 96.9579C209.059 97.1639 208.978 97.3699 208.903 97.5759H205.758C205.743 97.1373 205.699 96.7004 205.627 96.268C205.552 95.8058 205.431 95.3531 205.265 94.9175C204.953 94.1295 204.51 93.554 203.917 93.384C203.378 93.2303 202.788 93.4363 202.214 93.8646C202.138 93.6893 202.032 93.5298 201.902 93.3938C201.44 92.9458 200.732 92.8608 199.943 93.0243C199.472 93.1272 199.014 93.2874 198.579 93.5017C198.29 93.6421 198.009 93.7993 197.737 93.9725C197.424 94.1714 197.123 94.3897 196.835 94.6265C196.717 94.7246 196.601 94.826 196.489 94.9273C196.383 94.8652 196.28 94.7998 196.177 94.7442C195.856 94.5716 195.518 94.4367 195.169 94.342C194.545 94.1753 193.958 94.2145 193.565 94.5546C193.172 94.8946 193.004 95.5126 193.019 96.2287C193.033 96.656 193.092 97.0804 193.194 97.4942C193.194 97.5269 193.213 97.5596 193.219 97.5923H190.888C191.257 88.1783 198.389 80.6609 207.106 80.6609V80.6642Z" fill="url(#paint4_linear_90_977)"/>
<path d="M205.399 100.712C205.378 100.793 205.356 100.875 205.334 100.95C205.259 101.21 205.16 101.462 205.041 101.702C204.311 103.158 203.034 103.272 201.646 102.889C200.258 102.507 199.228 101.765 199.256 100.159C199.262 99.8941 199.291 99.6302 199.344 99.371C199.362 99.2664 199.387 99.1618 199.415 99.0441C199.54 98.5619 199.708 98.0932 199.918 97.6446C200.071 97.307 200.244 96.9794 200.436 96.6636C200.603 96.3896 200.784 96.1255 200.978 95.8723C201.27 95.4873 201.603 95.1384 201.971 94.8325C202.595 94.3256 203.244 94.0673 203.843 94.2308C204.442 94.3943 204.863 94.9404 205.162 95.6859C205.325 96.0985 205.444 96.5282 205.518 96.9677C205.597 97.4255 205.642 97.889 205.652 98.3541C205.652 98.6811 205.652 98.9852 205.63 99.2958C205.595 99.7742 205.518 100.248 205.399 100.712Z" fill="#FFD77C"/>
<path d="M205.505 96.984C204.229 96.33 202.501 95.6761 200.978 95.8919C201.27 95.5069 201.603 95.158 201.971 94.8521C202.754 94.7997 203.814 94.9698 205.15 95.7055C205.312 96.117 205.431 96.5457 205.505 96.984Z" fill="#FFC950"/>
<path d="M205.618 99.3121C204.37 98.5503 201.939 97.2816 199.921 97.6543C200.075 97.3168 200.248 96.9892 200.439 96.6734C201.443 96.4281 203.181 96.5066 205.64 98.3606C205.655 98.6843 205.655 99.0015 205.618 99.3121Z" fill="#FFC950"/>
<path d="M199.259 100.159C201.256 99.6718 203.727 100.908 205.044 101.702C205.163 101.462 205.262 101.21 205.337 100.95C202.155 98.4816 200.149 98.9884 199.347 99.371L199.259 100.159Z" fill="#FFC950"/>
<path d="M219.155 100.764L218.993 100.944C218.814 101.14 218.617 101.319 218.407 101.477C217.124 102.425 215.939 101.918 214.868 100.914C213.798 99.9106 213.206 98.7596 213.933 97.3437C214.052 97.1125 214.192 96.8936 214.351 96.6898C214.413 96.608 214.482 96.523 214.553 96.438C214.874 96.069 215.227 95.7329 215.608 95.4341C215.89 95.21 216.185 95.0036 216.491 94.8161C216.759 94.6522 217.035 94.5037 217.318 94.3714C217.745 94.1672 218.193 94.0147 218.653 93.9169C219.427 93.76 220.119 93.8417 220.572 94.2668C221.024 94.6919 221.171 95.3818 221.115 96.1928C221.08 96.6365 220.999 97.0751 220.874 97.5007C220.747 97.9491 220.586 98.3864 220.394 98.8086C220.263 99.0931 220.119 99.3711 219.967 99.6359C219.729 100.037 219.458 100.414 219.155 100.764Z" fill="#B65256"/>
<path d="M220.865 97.4941C220.013 96.3006 218.759 94.8782 217.308 94.3649C217.735 94.1606 218.183 94.0081 218.644 93.9103C219.364 94.2373 220.235 94.8913 221.105 96.1992C221.069 96.6386 220.989 97.0727 220.865 97.4941Z" fill="#B66F7B"/>
<path d="M219.957 99.6195C219.183 98.3476 217.564 96.0587 215.589 95.4276C215.872 95.2034 216.166 94.9971 216.472 94.8096C217.474 95.0712 218.99 95.9671 220.372 98.7923C220.253 99.0767 220.11 99.3547 219.957 99.6195Z" fill="#B66F7B"/>
<path d="M213.926 97.3437C215.917 97.8603 217.583 100.139 218.41 101.477C218.62 101.319 218.817 101.14 218.996 100.944C217.233 97.226 215.233 96.7126 214.347 96.693L213.926 97.3437Z" fill="#B66F7B"/>
<path d="M214.447 100.712C214.425 100.793 214.404 100.875 214.382 100.95C214.306 101.21 214.208 101.462 214.089 101.702C213.358 103.158 212.082 103.272 210.694 102.889C209.306 102.507 208.276 101.765 208.304 100.159C208.309 99.8941 208.339 99.6302 208.391 99.371C208.41 99.2664 208.435 99.1618 208.463 99.0441C208.588 98.5619 208.756 98.0932 208.966 97.6446C209.119 97.307 209.292 96.9794 209.483 96.6636C209.65 96.3896 209.832 96.1255 210.026 95.8723C210.318 95.4873 210.651 95.1384 211.018 94.8325C211.642 94.3256 212.291 94.0673 212.89 94.2308C213.489 94.3943 213.911 94.9404 214.21 95.6859C214.373 96.0985 214.492 96.5282 214.566 96.9677C214.645 97.4255 214.689 97.889 214.7 98.3541C214.7 98.6811 214.7 98.9852 214.678 99.2958C214.643 99.7742 214.566 100.248 214.447 100.712Z" fill="#FFD77C"/>
<path d="M214.553 96.984C213.277 96.33 211.549 95.6761 210.026 95.8919C210.318 95.5069 210.651 95.158 211.018 94.8521C211.802 94.7997 212.862 94.9698 214.198 95.7055C214.36 96.117 214.479 96.5457 214.553 96.984Z" fill="#FFC950"/>
<path d="M214.666 99.3121C213.418 98.5503 210.987 97.2816 208.969 97.6543C209.122 97.3168 209.295 96.9892 209.487 96.6734C210.491 96.4281 212.229 96.5066 214.688 98.3606C214.703 98.6843 214.703 99.0015 214.666 99.3121Z" fill="#FFC950"/>
<path d="M208.307 100.159C210.304 99.6718 212.775 100.908 214.092 101.702C214.211 101.462 214.309 101.21 214.385 100.95C211.203 98.4816 209.196 98.9884 208.395 99.371L208.307 100.159Z" fill="#FFC950"/>
<path d="M219.133 96.4641L219.252 96.6276C219.38 96.8071 219.492 96.9987 219.586 97.1998C220.147 98.4228 219.586 99.3678 218.669 100.143C217.751 100.918 216.765 101.271 215.764 100.47C215.599 100.336 215.446 100.186 215.308 100.022C215.252 99.9563 215.196 99.8877 215.14 99.8157C214.901 99.4917 214.692 99.1446 214.516 98.7792C214.38 98.5079 214.259 98.2284 214.154 97.9421C214.063 97.6917 213.985 97.4363 213.92 97.177C213.819 96.7851 213.762 96.3825 213.748 95.9769C213.748 95.2935 213.889 94.7148 214.282 94.3878C214.675 94.0608 215.218 94.0281 215.842 94.185C216.183 94.2749 216.513 94.4032 216.828 94.5676C217.154 94.7384 217.467 94.9351 217.764 95.1562C217.967 95.3066 218.163 95.4668 218.347 95.6336C218.633 95.8849 218.896 96.1629 219.133 96.4641Z" fill="#CECEE0"/>
<path opacity="0.3" d="M216.825 94.5578C215.783 95.1202 214.51 95.9998 213.908 97.1737C213.807 96.7818 213.749 96.3792 213.736 95.9736C214.266 95.1845 214.994 94.5644 215.839 94.1818C216.179 94.2696 216.51 94.3956 216.825 94.5578Z" fill="white"/>
<path opacity="0.3" d="M218.353 95.6237C217.261 96.1109 215.258 97.1835 214.5 98.7693C214.364 98.4981 214.243 98.2186 214.138 97.9323C214.478 97.1115 215.386 95.9409 217.767 95.1431C217.973 95.2967 218.169 95.457 218.353 95.6237Z" fill="white"/>
<path opacity="0.3" d="M215.764 100.463C216.438 98.8282 218.438 97.723 219.586 97.1933C219.492 96.9922 219.38 96.8006 219.252 96.6211C216.132 97.6217 215.449 99.2566 215.305 100.009L215.764 100.463Z" fill="white"/>
<path d="M198.542 97.4451L198.66 97.6086C198.788 97.7881 198.9 97.9797 198.994 98.1808C199.556 99.4037 198.994 100.349 198.077 101.124C197.16 101.899 196.174 102.252 195.172 101.451C195.007 101.317 194.855 101.167 194.717 101.003C194.66 100.937 194.604 100.869 194.548 100.797C194.309 100.473 194.1 100.126 193.924 99.7602C193.788 99.4889 193.667 99.2094 193.562 98.9231C193.471 98.6727 193.393 98.4173 193.328 98.1579C193.228 97.766 193.17 97.3634 193.157 96.9579C193.157 96.2745 193.297 95.6957 193.69 95.3687C194.083 95.0417 194.626 95.009 195.25 95.166C195.591 95.2559 195.922 95.3842 196.236 95.5486C196.562 95.7193 196.875 95.9161 197.172 96.1371C197.375 96.2876 197.571 96.4478 197.755 96.6145C198.041 96.8659 198.304 97.1439 198.542 97.4451Z" fill="#CECEE0"/>
<path opacity="0.3" d="M196.233 95.5388C195.191 96.1012 193.918 96.9808 193.316 98.1546C193.215 97.7628 193.158 97.3601 193.144 96.9546C193.674 96.1655 194.402 95.5453 195.247 95.1627C195.588 95.2505 195.918 95.3766 196.233 95.5388Z" fill="white"/>
<path opacity="0.3" d="M197.762 96.6047C196.67 97.0919 194.667 98.1644 193.909 99.7503C193.772 99.479 193.651 99.1995 193.547 98.9132C193.887 98.0925 194.795 96.9219 197.175 96.124C197.381 96.2777 197.578 96.4379 197.762 96.6047Z" fill="white"/>
<path opacity="0.3" d="M195.172 101.444C195.846 99.8092 197.846 98.704 198.994 98.1743C198.9 97.9731 198.788 97.7816 198.66 97.6021C195.54 98.6026 194.857 100.238 194.714 100.99L195.172 101.444Z" fill="white"/>
<path d="M200.436 100.764L200.273 100.944C200.094 101.14 199.898 101.319 199.687 101.477C198.404 102.425 197.219 101.918 196.149 100.914C195.079 99.9106 194.486 98.7596 195.213 97.3437C195.332 97.1125 195.472 96.8936 195.631 96.6898C195.693 96.608 195.762 96.523 195.834 96.438C196.154 96.069 196.507 95.7329 196.888 95.4341C197.171 95.21 197.465 95.0036 197.771 94.8161C198.039 94.6522 198.315 94.5037 198.598 94.3714C199.025 94.1672 199.473 94.0147 199.933 93.9169C200.707 93.76 201.4 93.8417 201.852 94.2668C202.304 94.6919 202.451 95.3818 202.395 96.1928C202.36 96.6365 202.279 97.0751 202.155 97.5007C202.027 97.9491 201.866 98.3864 201.674 98.8086C201.543 99.0931 201.4 99.3711 201.247 99.6359C201.009 100.037 200.738 100.414 200.436 100.764Z" fill="#B65256"/>
<path d="M202.145 97.4941C201.294 96.3006 200.039 94.8782 198.589 94.3649C199.016 94.1606 199.464 94.0081 199.924 93.9103C200.645 94.2373 201.515 94.8913 202.386 96.1992C202.35 96.6386 202.269 97.0727 202.145 97.4941Z" fill="#B66F7B"/>
<path d="M201.237 99.6195C200.464 98.3476 198.844 96.0587 196.869 95.4276C197.152 95.2034 197.447 94.9971 197.752 94.8096C198.754 95.0712 200.27 95.9671 201.652 98.7923C201.534 99.0767 201.39 99.3547 201.237 99.6195Z" fill="#B66F7B"/>
<path d="M195.206 97.3437C197.197 97.8603 198.863 100.139 199.69 101.477C199.901 101.319 200.097 101.14 200.276 100.944C198.514 97.226 196.514 96.7126 195.628 96.693L195.206 97.3437Z" fill="#B66F7B"/>
<path d="M206.953 117.205C197.147 117.205 189.169 109.03 189.169 99.0048C189.169 88.9794 197.147 80.8047 206.953 80.8047C216.759 80.8047 224.737 88.9794 224.737 99.0048C224.737 109.03 216.759 117.205 206.953 117.205ZM206.953 82.1846C198.18 82.1846 191.041 89.7282 191.041 99.0015C191.041 108.275 198.18 115.818 206.953 115.818C215.726 115.818 222.865 108.275 222.865 99.0015C222.865 89.7282 215.726 82.1846 206.953 82.1846Z" fill="#FF5252"/>
<path d="M225.049 99.8746L222.25 113.556L221.133 119.01L220.369 122.764H193.537L192.311 116.78L191.107 110.884L188.857 99.8746H225.049Z" fill="#002743"/>
<path opacity="0.1" d="M189.709 104.779H224.818L225.361 100.856H189.169L189.709 104.779Z" fill="black"/>
<path d="M228.793 98.2397H185.425V103.798H228.793V98.2397Z" fill="#002743"/>
<path opacity="0.3" d="M222.25 113.556L221.136 119C214.014 119.154 205.247 118.886 202.273 116.868C199.531 115.008 195.534 115.684 192.314 116.77L191.11 110.884C194.923 109.429 201.234 107.83 204.769 111.319C207.771 114.278 215.761 114.422 222.25 113.556Z" fill="white"/>
<path d="M206.335 76.5507C206.877 77.2335 207.26 78.0385 207.455 78.9025C207.65 79.7665 207.651 80.6661 207.459 81.5307C207.459 81.5307 203.83 81.0337 201.325 79.2974C198.876 77.6003 198.829 75.076 200.202 74.3174C201.574 73.5588 204.669 74.3958 206.335 76.5507Z" stroke="#EB7580" stroke-width="4" stroke-miterlimit="10"/>
<path d="M208.585 76.5507C208.043 77.2335 207.66 78.0385 207.465 78.9025C207.271 79.7665 207.269 80.6661 207.462 81.5307C207.462 81.5307 211.09 81.0337 213.596 79.2974C216.045 77.6003 216.092 75.076 214.719 74.3174C213.346 73.5588 210.251 74.3958 208.585 76.5507Z" stroke="#EB7580" stroke-width="4" stroke-miterlimit="10"/>
<path d="M207.265 81.0337L212.569 86.102" stroke="#EB7580" stroke-width="4" stroke-miterlimit="10"/>
<path d="M207.265 81.0337L201.961 86.102" stroke="#EB7580" stroke-width="4" stroke-miterlimit="10"/>
<path d="M190.105 88.5674C190.105 88.5674 196.033 83.7509 197.905 87.6028C197.905 87.6028 191.665 90.4934 190.105 90.0127V88.5674Z" fill="#FCC1CB"/>
<path d="M25.4433 188.04C25.4433 188.04 17.7463 160.652 26.8816 140.493C30.7191 132.034 31.992 122.535 30.2199 113.353C29.3725 108.994 28.1454 104.725 26.554 100.601" stroke="#535461" stroke-width="2" stroke-miterlimit="10"/>
<path d="M32.2448 87.8775C32.2448 91.2356 26.4448 100.957 26.4448 100.957C26.4448 100.957 20.6416 91.2356 20.6416 87.8775C20.6237 87.0676 20.7604 86.2621 21.0438 85.5083C21.3271 84.7546 21.7514 84.0678 22.2916 83.4884C22.8318 82.9089 23.4771 82.4485 24.1895 82.1341C24.9019 81.8198 25.6671 81.6578 26.4401 81.6578C27.2131 81.6578 27.9783 81.8198 28.6907 82.1341C29.4031 82.4485 30.0484 82.9089 30.5886 83.4884C31.1288 84.0678 31.553 84.7546 31.8364 85.5083C32.1197 86.2621 32.2565 87.0676 32.2385 87.8775H32.2448Z" fill="#FF5252"/>
<path d="M41.8293 106.47C40.0884 109.289 30.1731 114.154 30.1731 114.154C30.1731 114.154 30.3541 102.68 32.095 99.8615C32.4992 99.1698 33.0313 98.5698 33.6602 98.097C34.289 97.6241 35.0017 97.2879 35.7564 97.1083C36.5111 96.9286 37.2925 96.909 38.0545 97.0507C38.8166 97.1924 39.5438 97.4925 40.1935 97.9333C40.8432 98.3741 41.4021 98.9467 41.8373 99.6174C42.2725 100.288 42.5753 101.043 42.7277 101.839C42.8802 102.634 42.8792 103.453 42.7249 104.248C42.5706 105.043 42.2661 105.797 41.8293 106.467V106.47Z" fill="#FF5252"/>
<path d="M41.4112 138.243C38.5502 139.754 27.6491 138.711 27.6491 138.711C27.6491 138.711 33.3306 128.901 36.1916 127.39C37.5605 126.702 39.1323 126.604 40.5695 127.117C42.0067 127.63 43.1947 128.713 43.8784 130.134C44.5621 131.555 44.687 133.2 44.2263 134.716C43.7656 136.232 42.7561 137.498 41.4144 138.243H41.4112Z" fill="#FF5252"/>
<path d="M35.9294 162.208C33.3555 164.203 22.4387 165.105 22.4387 165.105C22.4387 165.105 26.4572 154.432 29.0312 152.434C29.643 151.952 30.3399 151.601 31.0816 151.403C31.8234 151.204 32.5953 151.161 33.3529 151.277C34.1104 151.393 34.8387 151.664 35.4956 152.076C36.1526 152.488 36.7252 153.032 37.1805 153.677C37.6358 154.322 37.9647 155.056 38.1483 155.834C38.3319 156.613 38.3665 157.423 38.2502 158.216C38.1339 159.009 37.869 159.77 37.4707 160.455C37.0723 161.14 36.5485 161.736 35.9294 162.208Z" fill="#FF5252"/>
<path d="M17.999 114.805C20.2953 117.143 30.9999 119.566 30.9999 119.566C30.9999 119.566 28.3791 108.425 26.0828 106.084C24.9718 105.006 23.5025 104.425 21.9887 104.467C20.4749 104.509 19.0368 105.17 17.9817 106.308C16.9265 107.446 16.3379 108.972 16.3418 110.559C16.3456 112.146 16.9415 113.669 18.0021 114.801L17.999 114.805Z" fill="#FF5252"/>
<path d="M11.9276 142.919C14.7886 144.43 25.6897 143.387 25.6897 143.387C25.6897 143.387 20.0177 133.574 17.1473 132.079C15.7784 131.391 14.2066 131.293 12.7694 131.806C11.3322 132.319 10.1442 133.402 9.46046 134.823C8.77675 136.244 8.65183 137.889 9.11252 139.405C9.57321 140.921 10.5828 142.187 11.9245 142.932L11.9276 142.919Z" fill="#FF5252"/>
<path d="M9.60323 171.089C12.1772 173.083 23.0939 173.986 23.0939 173.986C23.0939 173.986 19.0817 163.313 16.4983 161.319C15.8865 160.836 15.1896 160.486 14.4479 160.287C13.7062 160.088 12.9343 160.046 12.1767 160.161C11.4191 160.277 10.6908 160.548 10.0339 160.96C9.37695 161.372 8.80433 161.916 8.34905 162.561C7.89378 163.207 7.56485 163.94 7.38124 164.719C7.19764 165.498 7.16299 166.307 7.27929 167.1C7.3956 167.893 7.66055 168.654 8.05888 169.339C8.4572 170.024 8.98102 170.62 9.60011 171.092L9.60323 171.089Z" fill="#FF5252"/>
<path opacity="0.25" d="M32.2448 87.8775C32.2448 91.2356 26.4448 100.957 26.4448 100.957C26.4448 100.957 20.6416 91.2356 20.6416 87.8775C20.6237 87.0676 20.7604 86.2621 21.0438 85.5083C21.3271 84.7546 21.7514 84.0678 22.2916 83.4884C22.8318 82.9089 23.4771 82.4485 24.1895 82.1341C24.9019 81.8198 25.6671 81.6578 26.4401 81.6578C27.2131 81.6578 27.9783 81.8198 28.6907 82.1341C29.4031 82.4485 30.0484 82.9089 30.5886 83.4884C31.1288 84.0678 31.553 84.7546 31.8364 85.5083C32.1197 86.2621 32.2565 87.0676 32.2385 87.8775H32.2448Z" fill="black"/>
<path opacity="0.25" d="M41.8293 106.47C40.0884 109.289 30.1731 114.154 30.1731 114.154C30.1731 114.154 30.3541 102.68 32.095 99.8615C32.4992 99.1698 33.0313 98.5698 33.6602 98.097C34.289 97.6241 35.0017 97.2879 35.7564 97.1083C36.5111 96.9286 37.2925 96.909 38.0545 97.0507C38.8166 97.1924 39.5438 97.4925 40.1935 97.9333C40.8432 98.3741 41.4021 98.9467 41.8373 99.6174C42.2725 100.288 42.5753 101.043 42.7277 101.839C42.8802 102.634 42.8792 103.453 42.7249 104.248C42.5706 105.043 42.2661 105.797 41.8293 106.467V106.47Z" fill="black"/>
<path opacity="0.25" d="M41.4112 138.243C38.5502 139.754 27.6491 138.711 27.6491 138.711C27.6491 138.711 33.3306 128.901 36.1916 127.39C37.5605 126.702 39.1323 126.604 40.5695 127.117C42.0067 127.63 43.1947 128.713 43.8784 130.134C44.5621 131.555 44.687 133.2 44.2263 134.716C43.7656 136.232 42.7561 137.498 41.4144 138.243H41.4112Z" fill="black"/>
<path opacity="0.25" d="M35.9294 162.208C33.3555 164.203 22.4387 165.105 22.4387 165.105C22.4387 165.105 26.4572 154.432 29.0312 152.434C29.643 151.952 30.3399 151.601 31.0816 151.403C31.8234 151.204 32.5953 151.161 33.3529 151.277C34.1104 151.393 34.8387 151.664 35.4956 152.076C36.1526 152.488 36.7252 153.032 37.1805 153.677C37.6358 154.322 37.9647 155.056 38.1483 155.834C38.3319 156.613 38.3665 157.423 38.2502 158.216C38.1339 159.009 37.869 159.77 37.4707 160.455C37.0723 161.14 36.5485 161.736 35.9294 162.208Z" fill="black"/>
<path opacity="0.25" d="M17.999 114.805C20.2953 117.143 30.9999 119.566 30.9999 119.566C30.9999 119.566 28.3791 108.425 26.0828 106.084C24.9718 105.006 23.5025 104.425 21.9887 104.467C20.4749 104.509 19.0368 105.17 17.9817 106.308C16.9265 107.446 16.3379 108.972 16.3418 110.559C16.3456 112.146 16.9415 113.669 18.0021 114.801L17.999 114.805Z" fill="black"/>
<path opacity="0.25" d="M11.9276 142.919C14.7886 144.43 25.6897 143.387 25.6897 143.387C25.6897 143.387 20.0177 133.574 17.1473 132.079C15.7784 131.391 14.2066 131.293 12.7694 131.806C11.3322 132.319 10.1442 133.402 9.46046 134.823C8.77675 136.244 8.65183 137.889 9.11252 139.405C9.57321 140.921 10.5828 142.187 11.9245 142.932L11.9276 142.919Z" fill="black"/>
<path opacity="0.25" d="M9.60323 171.089C12.1772 173.083 23.0939 173.986 23.0939 173.986C23.0939 173.986 19.0817 163.313 16.4983 161.319C15.8865 160.836 15.1896 160.486 14.4479 160.287C13.7062 160.088 12.9343 160.046 12.1767 160.161C11.4191 160.277 10.6908 160.548 10.0339 160.96C9.37695 161.372 8.80433 161.916 8.34905 162.561C7.89378 163.207 7.56485 163.94 7.38124 164.719C7.19764 165.498 7.16299 166.307 7.27929 167.1C7.3956 167.893 7.66055 168.654 8.05888 169.339C8.4572 170.024 8.98102 170.62 9.60011 171.092L9.60323 171.089Z" fill="black"/>
<path d="M180.025 148.52C180.025 148.52 171.844 166.256 177.217 187.245C182.589 208.234 180.883 233.35 175.526 239.563" stroke="#535461" stroke-width="2" stroke-miterlimit="10"/>
<path d="M180.025 150.881C181.271 150.881 182.28 149.823 182.28 148.517C182.28 147.211 181.271 146.153 180.025 146.153C178.779 146.153 177.769 147.211 177.769 148.517C177.769 149.823 178.779 150.881 180.025 150.881Z" fill="#FF5252"/>
<path d="M176.621 159.926C176.621 159.926 185.101 161.528 187.357 158.291" stroke="#535461" stroke-width="2" stroke-miterlimit="10"/>
<path d="M175.819 165.076C175.819 165.076 170.712 159.16 170.999 155.622" stroke="#535461" stroke-width="2" stroke-miterlimit="10"/>
<path d="M175.392 175.896C175.392 175.896 180.031 177.177 184.265 167.721" stroke="#535461" stroke-width="2" stroke-miterlimit="10"/>
<path d="M176.621 183.796C176.621 183.796 165.077 176.01 166.484 170.987" stroke="#535461" stroke-width="2" stroke-miterlimit="10"/>
<path d="M178.424 192.703C178.424 192.703 186.511 185.182 185.666 177.782" stroke="#535461" stroke-width="2" stroke-miterlimit="10"/>
<path d="M179.307 197.944C179.307 197.944 169.011 194.929 169.323 190.201" stroke="#535461" stroke-width="2" stroke-miterlimit="10"/>
<path d="M180.025 204.18C180.025 204.18 186.511 197.882 187.357 194.043" stroke="#535461" stroke-width="2" stroke-miterlimit="10"/>
<path d="M180.477 214.895C180.477 214.895 173.822 206.753 173.538 202.617" stroke="#535461" stroke-width="2" stroke-miterlimit="10"/>
<path d="M180.477 221.631C180.477 221.631 187.921 212.959 188.495 208.823" stroke="#535461" stroke-width="2" stroke-miterlimit="10"/>
<path d="M170.999 158.569C172.245 158.569 173.254 157.51 173.254 156.204C173.254 154.899 172.245 153.84 170.999 153.84C169.753 153.84 168.743 154.899 168.743 156.204C168.743 157.51 169.753 158.569 170.999 158.569Z" fill="#FF5252"/>
<path d="M168.459 192.562C169.705 192.562 170.715 191.504 170.715 190.198C170.715 188.892 169.705 187.834 168.459 187.834C167.213 187.834 166.203 188.892 166.203 190.198C166.203 191.504 167.213 192.562 168.459 192.562Z" fill="#FF5252"/>
<path d="M166.487 173.348C167.733 173.348 168.743 172.29 168.743 170.984C168.743 169.679 167.733 168.62 166.487 168.62C165.241 168.62 164.232 169.679 164.232 170.984C164.232 172.29 165.241 173.348 166.487 173.348Z" fill="#FF5252"/>
<path d="M187.357 160.638C188.602 160.638 189.612 159.58 189.612 158.274C189.612 156.969 188.602 155.91 187.357 155.91C186.111 155.91 185.101 156.969 185.101 158.274C185.101 159.58 186.111 160.638 187.357 160.638Z" fill="#FF5252"/>
<path d="M187.357 196.996C188.602 196.996 189.612 195.938 189.612 194.632C189.612 193.326 188.602 192.268 187.357 192.268C186.111 192.268 185.101 193.326 185.101 194.632C185.101 195.938 186.111 196.996 187.357 196.996Z" fill="#FF5252"/>
<path d="M183.691 170.095C184.937 170.095 185.946 169.036 185.946 167.731C185.946 166.425 184.937 165.367 183.691 165.367C182.445 165.367 181.435 166.425 181.435 167.731C181.435 169.036 182.445 170.095 183.691 170.095Z" fill="#FF5252"/>
<path d="M188.202 212.662C189.448 212.662 190.458 211.603 190.458 210.298C190.458 208.992 189.448 207.934 188.202 207.934C186.956 207.934 185.946 208.992 185.946 210.298C185.946 211.603 186.956 212.662 188.202 212.662Z" fill="#FF5252"/>
<path d="M172.974 206.456C174.219 206.456 175.229 205.397 175.229 204.092C175.229 202.786 174.219 201.727 172.974 201.727C171.728 201.727 170.718 202.786 170.718 204.092C170.718 205.397 171.728 206.456 172.974 206.456Z" fill="#FF5252"/>
<path d="M185.946 180.146C187.192 180.146 188.202 179.088 188.202 177.782C188.202 176.477 187.192 175.418 185.946 175.418C184.701 175.418 183.691 176.477 183.691 177.782C183.691 179.088 184.701 180.146 185.946 180.146Z" fill="#FF5252"/>
<path opacity="0.25" d="M180.025 150.881C181.271 150.881 182.28 149.823 182.28 148.517C182.28 147.211 181.271 146.153 180.025 146.153C178.779 146.153 177.769 147.211 177.769 148.517C177.769 149.823 178.779 150.881 180.025 150.881Z" fill="black"/>
<path opacity="0.25" d="M170.999 158.569C172.245 158.569 173.254 157.51 173.254 156.204C173.254 154.899 172.245 153.84 170.999 153.84C169.753 153.84 168.743 154.899 168.743 156.204C168.743 157.51 169.753 158.569 170.999 158.569Z" fill="black"/>
<path opacity="0.25" d="M168.459 192.562C169.705 192.562 170.715 191.504 170.715 190.198C170.715 188.892 169.705 187.834 168.459 187.834C167.213 187.834 166.203 188.892 166.203 190.198C166.203 191.504 167.213 192.562 168.459 192.562Z" fill="black"/>
<path opacity="0.25" d="M166.487 173.348C167.733 173.348 168.743 172.29 168.743 170.984C168.743 169.679 167.733 168.62 166.487 168.62C165.241 168.62 164.232 169.679 164.232 170.984C164.232 172.29 165.241 173.348 166.487 173.348Z" fill="black"/>
<path opacity="0.25" d="M187.357 160.638C188.602 160.638 189.612 159.58 189.612 158.274C189.612 156.969 188.602 155.91 187.357 155.91C186.111 155.91 185.101 156.969 185.101 158.274C185.101 159.58 186.111 160.638 187.357 160.638Z" fill="black"/>
<path opacity="0.25" d="M187.357 196.996C188.602 196.996 189.612 195.938 189.612 194.632C189.612 193.326 188.602 192.268 187.357 192.268C186.111 192.268 185.101 193.326 185.101 194.632C185.101 195.938 186.111 196.996 187.357 196.996Z" fill="black"/>
<path opacity="0.25" d="M183.691 170.095C184.937 170.095 185.946 169.036 185.946 167.731C185.946 166.425 184.937 165.367 183.691 165.367C182.445 165.367 181.435 166.425 181.435 167.731C181.435 169.036 182.445 170.095 183.691 170.095Z" fill="black"/>
<path opacity="0.25" d="M188.202 212.662C189.448 212.662 190.458 211.603 190.458 210.298C190.458 208.992 189.448 207.934 188.202 207.934C186.956 207.934 185.946 208.992 185.946 210.298C185.946 211.603 186.956 212.662 188.202 212.662Z" fill="black"/>
<path opacity="0.25" d="M172.974 206.456C174.219 206.456 175.229 205.397 175.229 204.092C175.229 202.786 174.219 201.727 172.974 201.727C171.728 201.727 170.718 202.786 170.718 204.092C170.718 205.397 171.728 206.456 172.974 206.456Z" fill="black"/>
<path opacity="0.25" d="M185.946 180.146C187.192 180.146 188.202 179.088 188.202 177.782C188.202 176.477 187.192 175.418 185.946 175.418C184.701 175.418 183.691 176.477 183.691 177.782C183.691 179.088 184.701 180.146 185.946 180.146Z" fill="black"/>
</g>
<defs>
<linearGradient id="paint0_linear_90_977" x1="162.288" y1="237.663" x2="168.858" y2="237.663" gradientUnits="userSpaceOnUse">
<stop stop-color="#808080" stop-opacity="0.25"/>
<stop offset="0.54" stop-color="#808080" stop-opacity="0.12"/>
<stop offset="1" stop-color="#808080" stop-opacity="0.1"/>
</linearGradient>
<linearGradient id="paint1_linear_90_977" x1="269.961" y1="184.852" x2="276.216" y2="184.852" gradientUnits="userSpaceOnUse">
<stop stop-color="#808080" stop-opacity="0.25"/>
<stop offset="0.54" stop-color="#808080" stop-opacity="0.12"/>
<stop offset="1" stop-color="#808080" stop-opacity="0.1"/>
</linearGradient>
<linearGradient id="paint2_linear_90_977" x1="149.009" y1="206.962" x2="152.866" y2="206.962" gradientUnits="userSpaceOnUse">
<stop stop-color="#808080" stop-opacity="0.25"/>
<stop offset="0.54" stop-color="#808080" stop-opacity="0.12"/>
<stop offset="1" stop-color="#808080" stop-opacity="0.1"/>
</linearGradient>
<linearGradient id="paint3_linear_90_977" x1="142.398" y1="237.693" x2="142.398" y2="-2.10835e-05" gradientUnits="userSpaceOnUse">
<stop stop-color="#808080" stop-opacity="0.25"/>
<stop offset="0.54" stop-color="#808080" stop-opacity="0.12"/>
<stop offset="1" stop-color="#808080" stop-opacity="0.1"/>
</linearGradient>
<linearGradient id="paint4_linear_90_977" x1="207.265" y1="123.418" x2="207.265" y2="72.0808" gradientUnits="userSpaceOnUse">
<stop stop-color="#808080" stop-opacity="0.25"/>
<stop offset="0.54" stop-color="#808080" stop-opacity="0.12"/>
<stop offset="1" stop-color="#808080" stop-opacity="0.1"/>
</linearGradient>
<clipPath id="clip0_90_977">
<rect width="294" height="255" fill="white"/>
</clipPath>
</defs>
</svg>
