<svg width="222" height="299" viewBox="0 0 222 299" fill="none" xmlns="http://www.w3.org/2000/svg">
<g clip-path="url(#clip0_90_924)">
<path d="M126.703 77.8C126.703 77.4582 126.782 77.1197 126.937 76.8039C127.091 76.4881 127.318 76.2012 127.603 75.9595C127.889 75.7178 128.228 75.5261 128.601 75.3954C128.974 75.2646 129.374 75.1974 129.778 75.1975H141.91C142.314 75.197 142.715 75.2639 143.088 75.3944C143.462 75.5249 143.802 75.7165 144.088 75.9583C144.374 76.2 144.601 76.4871 144.756 76.8031C144.911 77.1191 144.99 77.4579 144.99 77.8V78.5117H172.896V42.5909H97.4883V78.5117H126.703V77.8Z" fill="#3F3D56"/>
<path d="M197.16 42.5911H176.813V78.5119H194.09L197.16 42.5911Z" fill="#3F3D56"/>
<path d="M172.895 0V39.2728H148.378C135.658 39.2712 123.399 35.2388 114.017 27.97C104.634 20.7011 98.8084 10.7227 97.6862 0H172.895Z" fill="#3F3D56"/>
<path d="M200.189 7.2052L197.442 39.2728H176.811V0H192.277C193.368 0.000472783 194.447 0.191141 195.446 0.560107C196.446 0.929072 197.345 1.46842 198.087 2.14449C198.83 2.82057 199.399 3.61887 199.761 4.48957C200.123 5.36028 200.268 6.28472 200.189 7.2052Z" fill="#3F3D56"/>
<path d="M193.138 89.566L189.849 141.927L189.824 142.306L188.764 159.188C188.599 163.031 186.679 166.669 183.408 169.338C180.138 172.006 175.771 173.498 171.228 173.498H99.806C96.8784 173.501 93.9968 172.881 91.4262 171.695C91.3814 171.674 91.3367 171.653 91.2968 171.636C90.8739 171.438 90.4658 171.224 90.0677 171C89.9682 170.941 89.8687 170.887 89.7692 170.828C87.5379 169.513 85.6987 167.777 84.3971 165.757C83.0956 163.736 82.3674 161.488 82.2702 159.188L77.8962 89.566H193.138Z" fill="#3F3D56"/>
<path d="M71.3869 13.4338L73.598 39.2726H93.5671V0H86.0817C86.0153 0 85.949 0.000252487 85.8826 0.000755012C83.8693 0.026646 81.8836 0.400798 80.0476 1.1002C78.2116 1.7996 76.564 2.80947 75.2063 4.06769C73.8485 5.32592 72.8093 6.8059 72.1524 8.41661C71.4956 10.0273 71.2351 11.7347 71.3869 13.4338Z" fill="#3F3D56"/>
<path d="M76.9521 78.5119H93.5673V42.5911H73.8818L76.9521 78.5119Z" fill="#3F3D56"/>
<path d="M172.776 3.78998H172.895V38.321H172.776C167.365 38.321 162.175 36.502 158.349 33.2641C154.523 30.0262 152.374 25.6346 152.374 21.0555C152.374 16.4764 154.523 12.0848 158.349 8.84693C162.175 5.60902 167.365 3.78998 172.776 3.78998Z" fill="#FF5252"/>
<path d="M193.178 21.0555C193.176 25.042 191.546 28.9054 188.563 31.9907C185.58 35.0761 181.428 37.1936 176.811 37.9842V4.12689C181.428 4.91747 185.58 7.03495 188.563 10.1203C191.546 13.2057 193.176 17.0691 193.178 21.0555Z" fill="#FF5252"/>
<path opacity="0.3" d="M92.1139 92.4771C94.9371 92.5894 100.776 93.7758 107.104 95.3097C113.427 96.8451 120.286 98.7183 127.058 100.571C138.912 103.812 150.765 107.052 162.618 110.29C164.248 110.735 165.882 111.183 167.52 111.636C168.148 112.33 168.772 113.032 169.384 113.74C167.944 113.309 166.498 112.892 165.056 112.495C158.897 110.801 153.552 109.684 147.573 108.143C138.374 105.773 128.668 102.661 119.255 99.7629C109.843 96.8625 99.0438 93.7406 92.1139 92.4771Z" fill="#F0F0F0"/>
<path d="M133.507 21.234C134.294 21.234 134.932 20.6941 134.932 20.0282C134.932 19.3622 134.294 18.8223 133.507 18.8223C132.72 18.8223 132.082 19.3622 132.082 20.0282C132.082 20.6941 132.72 21.234 133.507 21.234Z" fill="white"/>
<path d="M184.263 54.0806C185.05 54.0806 185.688 53.5407 185.688 52.8748C185.688 52.2088 185.05 51.6689 184.263 51.6689C183.476 51.6689 182.838 52.2088 182.838 52.8748C182.838 53.5407 183.476 54.0806 184.263 54.0806Z" fill="white"/>
<path d="M140.474 165.275C141 165.275 141.426 164.914 141.426 164.469C141.426 164.024 141 163.663 140.474 163.663C139.947 163.663 139.521 164.024 139.521 164.469C139.521 164.914 139.947 165.275 140.474 165.275Z" fill="white"/>
<path d="M172.818 104.635C173.344 104.635 173.771 104.274 173.771 103.829C173.771 103.384 173.344 103.023 172.818 103.023C172.292 103.023 171.866 103.384 171.866 103.829C171.866 104.274 172.292 104.635 172.818 104.635Z" fill="white"/>
<path d="M118.081 58.7343C118.607 58.7343 119.034 58.3734 119.034 57.9281C119.034 57.4828 118.607 57.1219 118.081 57.1219C117.555 57.1219 117.128 57.4828 117.128 57.9281C117.128 58.3734 117.555 58.7343 118.081 58.7343Z" fill="white"/>
<path d="M104.148 124.849C104.674 124.849 105.101 124.488 105.101 124.042C105.101 123.597 104.674 123.236 104.148 123.236C103.622 123.236 103.195 123.597 103.195 124.042C103.195 124.488 103.622 124.849 104.148 124.849Z" fill="white"/>
<path d="M149.005 133.731C148.672 133.546 148.327 133.36 147.973 133.182C146.322 132.355 144.488 131.71 142.695 132.151C140.815 132.614 139.615 134.127 138.602 135.545C133.122 143.218 128.369 151.246 124.388 159.554C130.7 155.099 132.329 147.344 137.955 142.273C138.907 141.416 140.118 140.595 141.505 140.647C142.624 140.689 143.585 141.285 144.571 141.731C147.169 142.909 150.212 143.104 153.152 143.275C157.222 143.514 161.292 143.751 165.363 143.989L165.368 143.934C162.484 141.918 159.532 139.98 156.511 138.12C154.051 136.603 151.549 135.14 149.005 133.731Z" fill="#F2F2F2"/>
<path d="M177.229 152.657C173.004 147.901 168.181 143.548 162.843 139.674C162.415 139.362 161.983 139.055 161.545 138.748C160.609 138.095 159.662 137.456 158.703 136.831C156.673 135.518 154.59 134.274 152.453 133.1C151.17 132.397 149.867 131.719 148.547 131.066C148.214 130.902 147.88 130.738 147.542 130.578C146.701 130.178 145.86 129.778 144.999 129.407C144.176 128.999 143.253 128.757 142.302 128.7C139.033 128.658 137.336 131.791 136.171 133.901C135.808 134.566 135.438 135.228 135.062 135.888C133.649 138.394 132.179 140.876 130.653 143.333C129.712 144.854 128.752 146.364 127.772 147.865C126.378 149.991 124.947 152.097 123.477 154.181C121.716 156.683 119.9 159.155 118.029 161.597C114.809 165.795 111.609 169.644 108.176 173.498H108.693C112.52 169.139 116.154 164.672 119.596 160.098C122.582 156.131 125.421 152.09 128.115 147.974C129.394 146.016 130.64 144.042 131.852 142.053C132.788 140.508 133.705 138.957 134.604 137.4C134.863 136.954 135.112 136.507 135.36 136.057C135.948 135 136.52 133.938 137.137 132.898C137.838 131.715 138.689 130.468 139.983 129.673C140.569 129.295 141.27 129.066 142.003 129.011C143.039 129.018 144.052 129.265 144.934 129.723C146.104 130.241 147.262 130.78 148.408 131.34C151.895 133.059 155.25 134.965 158.45 137.046C160.171 138.166 161.845 139.331 163.47 140.541C169.127 144.744 174.183 149.493 178.533 154.691C178.667 154.851 178.981 154.699 178.847 154.535C178.319 153.903 177.78 153.277 177.229 152.657Z" fill="#F2F2F2"/>
<path d="M187.127 140.133C185.266 138.962 183.338 137.873 181.345 136.865C180.349 136.36 179.344 135.88 178.319 135.416C178.011 135.278 177.697 135.143 177.384 135.012C176.667 134.705 175.921 134.448 175.154 134.246C174.07 133.949 172.923 133.852 171.79 133.964C170.697 134.098 169.643 134.407 168.685 134.873C166.65 135.838 165.073 137.324 163.54 138.777C163.508 138.806 163.491 138.845 163.492 138.885C163.493 138.925 163.512 138.963 163.545 138.992C163.56 139.007 163.579 139.02 163.6 139.029C163.622 139.038 163.646 139.042 163.669 139.042C163.693 139.042 163.717 139.038 163.738 139.029C163.76 139.02 163.779 139.007 163.794 138.992C163.988 138.815 164.172 138.634 164.366 138.457C165.874 137.042 167.491 135.648 169.566 134.84C170.553 134.44 171.632 134.228 172.726 134.221C173.854 134.245 174.967 134.449 176.005 134.823C176.498 134.991 176.981 135.181 177.458 135.383C178.001 135.614 178.538 135.863 179.066 136.111C180.066 136.579 181.051 137.066 182.021 137.573C183.957 138.583 185.83 139.672 187.639 140.84C188.381 141.316 189.107 141.8 189.824 142.306L189.849 141.927C188.958 141.308 188.051 140.71 187.127 140.133Z" fill="#F2F2F2"/>
<path d="M99.2238 161.159C101.344 158.91 103.482 156.673 105.638 154.446C106.156 153.907 106.678 153.364 107.205 152.829C107.629 152.384 108.091 151.965 108.589 151.579C109.075 151.191 109.649 150.89 110.276 150.694C110.978 150.509 111.728 150.5 112.435 150.669C113.245 150.868 114.042 151.101 114.824 151.368L117.247 152.118L122.119 153.625C122.149 153.637 122.184 153.64 122.216 153.633C122.249 153.626 122.278 153.61 122.298 153.587C122.317 153.567 122.33 153.543 122.336 153.518C122.342 153.492 122.341 153.466 122.332 153.441C122.324 153.416 122.309 153.393 122.288 153.374C122.268 153.355 122.242 153.34 122.213 153.331L120.989 152.947L116.083 151.431C115.267 151.179 114.456 150.922 113.64 150.673C112.892 150.407 112.092 150.258 111.281 150.235C109.898 150.256 108.743 150.972 107.818 151.781C107.315 152.223 106.857 152.699 106.399 153.175C105.857 153.735 105.31 154.299 104.767 154.863C102.588 157.121 100.423 159.39 98.2734 161.673C96.1237 163.955 93.9873 166.245 91.8641 168.541C91.1625 169.303 90.4642 170.065 89.7692 170.828C89.8687 170.887 89.9682 170.941 90.0677 171C91.0032 169.973 91.9454 168.948 92.8942 167.926C94.9891 165.661 97.099 163.405 99.2238 161.159Z" fill="#F2F2F2"/>
<path d="M170.206 136.616C168.398 137.402 167.025 138.765 165.271 139.635C169.496 138.577 173.79 137.729 178.131 137.095C176.979 136.427 175.638 136.031 174.245 135.947C172.853 135.862 171.459 136.093 170.206 136.616Z" fill="#F2F2F2"/>
<path d="M178.131 137.095C178.303 137.197 178.471 137.305 178.632 137.42L178.155 137.091L178.131 137.095Z" fill="#F2F2F2"/>
<path d="M110.486 152.427C109.791 152.688 109.197 153.108 108.77 153.64C102.818 159.771 96.8661 165.903 90.9141 172.034C99.1676 166.741 106.056 160.077 111.156 152.45L110.486 152.427Z" fill="#F2F2F2"/>
<path d="M49.6921 167.015C49.6943 167.026 49.6965 167.033 49.6986 167.044C49.7138 167.12 49.729 167.189 49.7463 167.264V167.268C50.4856 170.724 51.2979 174.122 52.1832 177.463L219.39 177.16C220.287 173.751 221.111 170.279 221.861 166.745C221.864 166.737 221.865 166.728 221.866 166.72L49.6921 167.015Z" fill="#E6E6E6"/>
<path d="M58.2208 129.063L69.8554 128.768C72.9979 134.617 69.1513 147.268 69.1513 147.268L64.8255 173.295C65.5107 173.792 66.0291 174.433 66.3284 175.154C66.6277 175.875 66.6973 176.65 66.5303 177.401C66.3633 178.151 65.9655 178.852 65.377 179.431C64.7885 180.01 64.03 180.448 63.1779 180.701C62.3258 180.953 61.4102 181.011 60.5233 180.869C59.6363 180.727 58.8092 180.389 58.1254 179.89C57.4415 179.392 56.9249 178.749 56.6277 178.028C56.3305 177.306 56.263 176.532 56.4322 175.781L53.534 147.233L58.2208 129.063Z" fill="#FFB8B8"/>
<path d="M57.7171 131.318L60.1568 117.096L66.6301 111.831C67.9053 110.801 69.4955 110.094 71.2209 109.789C72.9463 109.484 74.7382 109.593 76.394 110.104C78.633 110.811 80.4716 112.21 81.5381 114.019C82.6047 115.829 82.8195 117.914 82.1391 119.852C80.0701 125.729 76.5635 132.957 71.6085 134.011L71.5583 134.022L57.7171 131.318Z" fill="#FF5252"/>
<path d="M106.914 292.225H113.262L116.282 271.505L106.913 271.506L106.914 292.225Z" fill="#FFB6B6"/>
<path d="M105.297 290.471V297.432H125.764V297.213C125.764 295.425 124.924 293.71 123.43 292.446C121.936 291.182 119.91 290.471 117.797 290.471L114.055 288.071L113.861 288.138L107.084 290.471H105.297Z" fill="#2F2E41"/>
<path d="M63.6221 292.225H69.9701L72.9896 271.505L63.6211 271.506L63.6221 292.225Z" fill="#FFB6B6"/>
<path d="M62.0053 290.471V297.432H82.4721V297.213C82.4717 295.425 81.6322 293.71 80.1383 292.446C78.6443 291.182 76.6181 290.471 74.5053 290.471L70.7633 288.071L70.5692 288.138L63.7917 290.471H62.0053Z" fill="#2F2E41"/>
<path d="M111.165 164.98L67.3723 162.811C67.3723 162.811 58.3252 177.288 61.3109 187.815C64.2965 198.343 65.3336 219.364 63.571 221.066C61.8085 222.767 61.3109 219.82 63.3013 223.189C65.3141 226.595 64.7941 222.346 64.7941 225.294C64.709 227.233 64.0284 229.119 62.8193 230.768V281.691L78.1977 280.854C78.1977 280.854 82.3516 279.137 78.7978 276.219C75.244 273.301 72.9687 275.595 75.1016 271.921C77.2344 268.247 78.2296 272.458 77.2344 268.247C76.2392 264.036 88.7573 200.817 88.7573 200.817C88.7573 200.817 93.5585 213.883 95.646 225.715C99.2401 246.087 101.154 270.252 102.587 271.515C104.852 273.511 106.345 270.985 104.852 273.511C103.359 276.038 100.017 275.497 102.185 277.031C104.354 278.565 104.354 276.459 104.354 278.565C104.371 279.906 104.596 281.241 105.023 282.533L117.722 281.811L117.043 226.979L111.165 164.98Z" fill="#2F2E41"/>
<path d="M98.7076 99.9698L84.6651 98.5556L81.0693 104.943C81.0693 104.943 61.3696 113.942 62.0866 116.137C62.8037 118.332 68.2774 127.596 66.7845 130.123C65.2917 132.65 61.4049 133.49 64.3435 135.807C67.2821 138.124 69.2726 138.966 68.2774 141.072C67.2821 143.178 67.7798 150.758 67.7798 150.758C67.7798 150.758 62.0015 159.734 63.8954 161.563C65.7893 163.391 67.2821 161.597 65.7893 164.178C64.2965 166.76 52.8122 169.716 63.7793 169.922C74.7463 170.129 77.2344 164.233 85.6938 168.865C94.1532 173.498 110.892 169.164 110.892 169.164C110.892 169.164 111.864 164.233 111.468 161.285C111.072 158.338 110.146 159.801 110.858 154.858C111.57 149.915 112.735 138.2 112.735 138.2C112.735 138.2 119.198 113.943 117.541 111.594C115.883 109.245 101.3 106.136 101.3 106.136L98.7076 99.9698Z" fill="#FF5252"/>
<path d="M108.341 135.565L118.397 130.604C124.459 134.473 128.217 147.144 128.217 147.144L139.101 171.76C139.984 171.92 140.801 172.274 141.471 172.786C142.141 173.299 142.639 173.951 142.916 174.678C143.193 175.405 143.238 176.182 143.048 176.928C142.858 177.675 142.438 178.366 141.832 178.932C141.226 179.499 140.454 179.919 139.595 180.153C138.735 180.386 137.818 180.424 136.936 180.262C136.053 180.1 135.237 179.745 134.569 179.231C133.901 178.717 133.404 178.064 133.129 177.336L114.476 153.424L108.341 135.565Z" fill="#FFB8B8"/>
<path d="M109.171 137.749L103.291 124.268L106.007 117.026C106.547 115.606 107.545 114.342 108.889 113.376C110.233 112.411 111.869 111.783 113.612 111.564C118.521 110.974 118.954 112.431 119.983 116.535C121.482 122.535 122.097 125.664 122.896 134.503L122.858 134.533L109.171 137.749Z" fill="#FF5252"/>
<path d="M93.0841 96.2364C100.403 96.2364 106.336 91.2154 106.336 85.0215C106.336 78.8277 100.403 73.8066 93.0841 73.8066C85.7651 73.8066 79.8318 78.8277 79.8318 85.0215C79.8318 91.2154 85.7651 96.2364 93.0841 96.2364Z" fill="#FFB8B8"/>
<path d="M90.1899 95.9202C93.9111 95.2485 94.074 94.3602 97.7952 93.6886C98.9801 93.4747 100.357 93.1232 100.746 92.1522C101.024 91.4607 100.667 90.6968 100.168 90.1011C99.6093 89.545 99.0886 88.9625 98.6083 88.3563C98.2936 87.8715 98.1231 87.3292 98.1116 86.7761C98.1001 86.2231 98.2479 85.676 98.5423 85.1822C98.8366 84.6883 99.2686 84.2626 99.801 83.9417C100.333 83.6208 100.95 83.4144 101.598 83.3405C102.746 83.2094 103.912 83.5004 105.065 83.411C106.647 83.2884 109.17 78.4128 108.204 77.3457C107.263 76.307 105.675 75.6566 105.185 74.4156C104.864 73.6039 105.095 72.714 104.972 71.8644C104.791 70.6047 101.65 73.9835 102.1 72.7729C103.203 69.8031 86.6746 68.8356 84.7911 72.6315C84.0871 74.0503 82.3344 74.2266 80.9503 75.2244C80.0432 75.8784 77.8504 77.9925 77.4967 79.1566C77.1948 80.3354 77.1924 81.5551 77.4898 82.7348C78.6352 88.2572 80.7037 93.183 86.6548 95.6474" fill="#2F2E41"/>
<path d="M30.2015 295.674C26.608 295.942 22.9892 295.528 19.6093 294.461C16.2294 293.394 13.1738 291.701 10.6657 289.507C7.38617 286.581 5.13562 282.814 2.95914 279.172C2.32558 278.112 1.67069 277.016 1.00443 275.966C0.261628 274.82 -0.0589468 273.513 0.0839951 272.212C0.226937 270.912 0.826855 269.677 1.80646 268.667C2.74521 267.658 4.01964 266.909 5.46554 266.518C6.91144 266.127 8.46255 266.112 9.919 266.474L10.2366 266.551L13.0949 275.99C13.5214 274.582 14.4367 271.41 15.0147 268.302L15.0632 268.042L15.3479 268.149C18.3324 269.267 21.1388 270.698 23.7009 272.409C28.2395 275.49 31.9309 279.37 34.5185 283.78C37.1062 288.19 38.5279 293.024 38.685 297.946L38.6926 298.24L30.2015 295.674Z" fill="#F2F2F2"/>
<path d="M221.407 298.871L0.592493 299C0.435352 299 0.284659 298.947 0.173544 298.853C0.0624294 298.759 0 298.632 0 298.499C0 298.366 0.0624294 298.238 0.173544 298.144C0.284659 298.05 0.435352 297.997 0.592493 297.997L221.407 297.868C221.565 297.868 221.715 297.921 221.826 298.015C221.938 298.109 222 298.236 222 298.369C222 298.502 221.938 298.63 221.826 298.724C221.715 298.818 221.565 298.871 221.407 298.871Z" fill="#CACACA"/>
</g>
<defs>
<clipPath id="clip0_90_924">
<rect width="222" height="299" fill="white"/>
</clipPath>
</defs>
</svg>
