<svg width="290" height="287" viewBox="0 0 290 287" fill="none" xmlns="http://www.w3.org/2000/svg">
<g clip-path="url(#clip0_90_1241)">
<path d="M139.169 269.241L138.799 262.041C138.761 262.023 138.722 262.005 138.684 261.988C134.724 260.187 130.185 263.447 131.45 267.164C132.64 270.661 133.439 274.431 135.618 277.492C136.905 279.27 138.638 280.774 140.687 281.893C142.736 283.012 145.05 283.717 147.456 283.956L152.488 286.625C153.178 283.29 153.026 279.866 152.042 276.586C151.057 273.307 149.264 270.252 146.786 267.632C145.379 266.173 143.765 264.874 141.984 263.765C140.779 266.518 139.169 269.241 139.169 269.241Z" fill="#F2F2F2"/>
<path d="M94.1212 196.169C84.4344 187.513 70.3967 182.549 55.6076 182.549L55.0372 182.55C45.296 182.553 35.7287 180.314 27.3137 176.063L26.438 175.621L27.1433 174.991C30.9615 171.568 34.1497 167.657 36.5963 163.395C34.8587 164.798 32.7863 165.854 30.5257 166.487C28.2652 167.119 25.8717 167.314 23.5148 167.056C21.0264 166.799 18.6375 166.057 16.5273 164.886C14.4171 163.715 12.6404 162.145 11.3304 160.294C6.16144 153.028 0 142.717 0 134.862C0.00804622 128.222 1.61247 121.657 4.71101 115.585C7.80955 109.512 12.3342 104.066 17.9966 99.5927C21.5814 96.792 24.4448 93.3681 26.4 89.5443C28.3552 85.7205 29.3583 81.5825 29.344 77.4002L29.3412 76.8051C29.3402 71.2988 30.1168 65.8132 31.6536 60.4703L31.8096 59.9308L32.4503 59.9502C36.5816 60.072 40.7152 59.772 44.7655 59.0563C40.9663 58.6525 37.2496 57.796 33.7209 56.511L33.0317 56.2694L33.2655 55.6575C49.389 47.0076 85.7842 51.487 106.909 9.60894C124.038 -24.3484 184.477 39.7529 184.477 76.8051C184.477 80.5858 180.158 85.582 183.391 88.0808C218.336 115.094 194.225 132.44 186.622 149.894C184.819 154.036 188.73 158.582 188.73 163.062C188.73 163.822 188.707 164.607 188.663 165.394L188.596 166.605L187.431 165.933C185.126 164.625 182.989 163.106 181.057 161.404C183.061 165.4 184.006 169.734 183.821 174.088C183.637 178.442 182.328 182.705 179.991 186.562C176.328 192.551 172.785 196.839 169.46 199.305C158.808 207.204 145.076 211.278 131.072 210.695C117.068 210.112 103.85 204.916 94.1212 196.169Z" fill="#E6E6E6"/>
<path d="M152.627 286.27C152.865 286.27 153.095 286.195 153.275 286.06C153.455 285.925 153.572 285.738 153.606 285.533C153.648 285.277 157.767 259.538 154.068 225.33C150.651 193.737 139.68 148.233 106.815 110.861C106.736 110.772 106.638 110.696 106.526 110.639C106.413 110.583 106.289 110.546 106.16 110.53C106.031 110.515 105.9 110.522 105.774 110.551C105.649 110.58 105.531 110.63 105.427 110.698C105.324 110.767 105.237 110.852 105.171 110.949C105.106 111.047 105.063 111.154 105.046 111.266C105.029 111.378 105.037 111.491 105.07 111.6C105.104 111.709 105.162 111.811 105.241 111.901C137.822 148.95 148.704 194.12 152.097 225.49C155.774 259.499 151.688 285.038 151.646 285.292C151.626 285.413 151.637 285.537 151.677 285.655C151.717 285.773 151.786 285.882 151.879 285.975C151.972 286.068 152.087 286.142 152.216 286.193C152.345 286.244 152.485 286.27 152.627 286.27Z" fill="#3F3D56"/>
<path d="M125.807 163.576C126.016 163.576 126.22 163.519 126.389 163.413C126.559 163.306 126.685 163.156 126.749 162.984C126.814 162.812 126.814 162.626 126.75 162.454C126.685 162.281 126.559 162.131 126.39 162.025C126.271 161.95 114.248 154.443 96.2736 148.741C79.6578 143.47 54.391 138.692 28.3793 145.865C28.2553 145.899 28.1402 145.954 28.0407 146.027C27.9411 146.099 27.8591 146.188 27.7992 146.288C27.7393 146.388 27.7029 146.497 27.6918 146.61C27.6808 146.722 27.6954 146.835 27.7348 146.943C27.7743 147.05 27.8378 147.15 27.9217 147.236C28.0057 147.322 28.1084 147.393 28.224 147.445C28.3396 147.496 28.4659 147.528 28.5955 147.537C28.7252 147.547 28.8557 147.534 28.9796 147.499C54.4584 140.474 79.2671 145.173 95.5929 150.352C113.311 155.973 125.109 163.338 125.226 163.412C125.395 163.519 125.598 163.576 125.807 163.576Z" fill="#3F3D56"/>
<path d="M171.108 65.8151C171.124 65.6345 171.072 65.4542 170.962 65.3003C170.852 65.1464 170.688 65.0267 170.495 64.9584C170.301 64.8901 170.087 64.8767 169.884 64.92C169.681 64.9634 169.499 65.0613 169.365 65.1998C169.27 65.2975 159.763 75.1473 151.905 90.2701C144.641 104.25 137.321 125.742 143.705 148.738C143.766 148.959 143.926 149.15 144.15 149.269C144.374 149.387 144.643 149.424 144.898 149.371C145.153 149.318 145.374 149.179 145.511 148.985C145.648 148.791 145.69 148.558 145.629 148.337C139.376 125.812 146.573 104.71 153.71 90.9743C161.456 76.0674 170.785 66.4014 170.878 66.3055C171.013 66.1673 171.093 65.9956 171.108 65.8151Z" fill="#3F3D56"/>
<path d="M169.769 110.037C170.604 115.875 175.273 120.688 182.062 120.688C185.322 120.688 188.449 119.566 190.755 117.568C193.06 115.571 194.355 112.862 194.355 110.037C194.355 104.154 188.822 99.9291 182.062 99.3853C174.889 98.8082 168.697 102.542 169.769 110.037Z" fill="#2F2E41"/>
<path d="M187.756 281.579L192.437 281.578L194.664 265.933L187.755 265.933L187.756 281.579Z" fill="#FFB6B6"/>
<path d="M187.591 285.81L201.987 285.81V285.652C201.987 284.364 201.396 283.129 200.345 282.219C199.295 281.309 197.87 280.797 196.384 280.797H196.383L193.754 279.068L188.847 280.797L187.591 280.797L187.591 285.81Z" fill="#2F2E41"/>
<path d="M169.316 281.579L173.997 281.578L176.224 265.933L169.315 265.933L169.316 281.579Z" fill="#FFB6B6"/>
<path d="M169.151 285.81L183.547 285.81V285.652C183.547 284.364 182.957 283.129 181.906 282.219C180.855 281.309 179.43 280.797 177.944 280.797H177.944L175.314 279.068L170.408 280.797L169.151 280.797L169.151 285.81Z" fill="#2F2E41"/>
<path d="M203.865 183.589L207.175 193.421L203.276 235.062C203.276 235.062 205.284 237.666 203.865 237.666C202.447 237.666 200.628 238.243 201.774 239.798C202.92 241.353 199.003 246.935 199.003 246.935L193.463 276.584L186.405 276.494C186.405 276.494 182.816 274.762 184.83 273.01C186.844 271.259 188.263 271.259 186.371 269.62C184.48 267.981 184.48 268.475 184.48 267.204C184.48 265.933 182.585 250.401 187.079 244.443L185.725 220.151L182.536 243.978L175.969 275.765L169.17 275.716C169.17 275.716 166.029 273.093 166.035 271.152C166.04 269.21 167.975 269.049 166.535 267.901C165.095 266.752 165.095 249.111 169.35 239.304C169.35 239.304 171.757 233.825 169.345 231.948C166.932 230.07 169.342 227.922 169.342 227.922C169.342 227.922 173.163 226.725 169.338 223.277C165.514 219.829 169.318 195.44 169.318 195.44C169.318 195.44 165.137 185.596 169.371 181.724C173.605 177.853 203.865 183.589 203.865 183.589Z" fill="#2F2E41"/>
<path d="M144.918 200.529L150.823 188.164L155.475 190.403L152.666 202.982C152.947 203.778 152.966 204.627 152.721 205.433C152.476 206.239 151.977 206.97 151.279 207.543C150.581 208.116 149.712 208.51 148.77 208.679C147.828 208.848 146.851 208.786 145.947 208.5C145.044 208.214 144.251 207.715 143.657 207.06C143.062 206.405 142.691 205.619 142.584 204.79C142.477 203.962 142.639 203.125 143.051 202.372C143.463 201.619 144.11 200.981 144.918 200.529Z" fill="#FFB6B6"/>
<path d="M244.007 102.752L235.022 113.636L231.076 110.541L237.102 98.8419C237.036 98.0105 237.239 97.1797 237.689 96.4429C238.138 95.7061 238.816 95.0925 239.646 94.6712C240.475 94.2498 241.424 94.0373 242.386 94.0576C243.347 94.0779 244.283 94.3302 245.088 94.7861C245.893 95.242 246.536 95.8835 246.943 96.6383C247.351 97.3932 247.507 98.2316 247.394 99.0592C247.282 99.8869 246.905 100.671 246.307 101.323C245.709 101.976 244.912 102.47 244.007 102.752Z" fill="#FFB6B6"/>
<path d="M204.757 184.597C210.585 192.429 181.291 202.369 170.05 198.378C168.082 197.679 161.312 195.372 165.94 192.172C170.567 188.972 165.403 188.522 165.281 186.439C165.199 185.046 166.444 181.992 165.145 182.123C163.847 182.254 162.328 180.328 165.155 179.499C167.983 178.67 165.185 177.915 165.21 177.128C165.481 168.543 173.082 154.888 173.082 154.888L159.385 185.227C159.385 185.227 159.486 190.476 157.739 188.872C155.992 187.268 156.119 192.459 156.119 192.459C156.119 192.459 153.522 194.03 155.016 194.904C156.509 195.778 153.407 198.466 153.407 198.466L146.17 198.018C146.17 198.018 146.284 193.36 147.519 192.329C148.755 191.299 148.148 189.678 148.148 189.678C148.148 189.678 151.365 187.211 149.208 185.207C146.434 182.63 156.548 139.107 160.039 139.538C160.532 137.457 161.68 135.535 163.356 133.984C165.031 132.433 167.169 131.313 169.533 130.749L177.35 128.885L178.738 124.113H189.744L191.661 127.248L200.029 130.52C201.605 128.593 202.783 126.563 209.237 125.905C209.237 125.905 226.628 112.194 225.779 111.124C224.93 110.053 227.626 107.547 227.626 107.547C227.626 107.547 229.928 106.894 228.629 106.545C227.33 106.197 229.786 105.391 229.786 105.391C229.786 105.391 232.06 104.873 230.987 104.191C229.915 103.509 234.567 103.061 234.567 103.061L240.603 107.329L239.383 109.121C239.383 109.121 240.127 111.562 239.156 110.671C238.186 109.78 238.003 112.366 238.003 112.366C238.003 112.366 237.507 115.198 234.567 116.051C231.627 116.904 229.398 125.009 229.398 125.009C222.464 132.82 214.281 138.914 204.585 142.925C208.364 146.684 204.757 184.597 204.757 184.597Z" fill="#FF5252"/>
<path d="M183.421 121.321C189.441 121.321 194.322 117.092 194.322 111.875C194.322 106.659 189.441 102.43 183.421 102.43C177.4 102.43 172.52 106.659 172.52 111.875C172.52 117.092 177.4 121.321 183.421 121.321Z" fill="#FFB6B6"/>
<path d="M172.133 112.904C172.478 114.957 174.497 117.82 174.024 117.82C173.551 117.82 170.19 109.359 173.551 108.808C175.99 108.408 176.535 108.759 178.814 107.902L178.492 108.164C180.001 109.115 182.1 108.529 183.821 107.91C185.547 107.296 187.641 106.71 189.154 107.656C190.105 108.251 190.506 109.283 191.097 110.16C191.688 111.04 192.781 111.872 193.906 111.602C194.809 111.385 195.329 110.508 195.324 109.697C195.32 108.886 194.101 108.114 194.511 107.386C195.728 105.229 194.634 103.759 191.982 102.745C191.017 102.618 190.052 102.488 189.088 102.355C189.593 101.749 190.206 101.215 190.904 100.774C190.609 100.119 190.099 99.554 189.438 99.1476C188.667 98.7502 187.712 98.7789 186.818 98.8199C184.823 98.91 182.83 99.0001 180.837 99.0903C179.362 99.1558 177.835 99.2336 176.516 99.8195C174.871 100.553 173.793 101.983 173.008 103.437C171.249 106.706 171.528 109.336 172.133 112.904Z" fill="#2F2E41"/>
<path d="M126.785 286.874L233.995 287C234.145 287 234.288 286.949 234.393 286.857C234.499 286.766 234.558 286.642 234.558 286.512C234.558 286.383 234.499 286.259 234.393 286.167C234.288 286.076 234.145 286.024 233.995 286.024L126.785 285.899C126.636 285.899 126.493 285.95 126.387 286.041C126.282 286.133 126.222 286.257 126.222 286.386C126.222 286.516 126.282 286.64 126.387 286.731C126.493 286.823 126.636 286.874 126.785 286.874Z" fill="#CACACA"/>
<path d="M88.0103 244.354C88.2079 243.177 86.7852 242.023 84.8325 241.777C82.8798 241.531 81.1366 242.285 80.939 243.462C80.7413 244.639 82.1641 245.793 84.1168 246.039C86.0695 246.285 87.8126 245.531 88.0103 244.354Z" fill="#E6E6E6"/>
<path d="M111.259 242.388C111.457 241.211 110.034 240.058 108.081 239.811C106.129 239.565 104.385 240.32 104.188 241.497C103.99 242.674 105.413 243.827 107.366 244.074C109.318 244.32 111.061 243.565 111.259 242.388Z" fill="#3F3D56"/>
<path d="M81.644 228.046C81.8417 226.869 80.4189 225.715 78.4663 225.469C76.5136 225.223 74.7704 225.977 74.5728 227.154C74.3751 228.331 75.7979 229.485 77.7505 229.731C79.7032 229.977 81.4464 229.223 81.644 228.046Z" fill="#FF5252"/>
<path d="M71.5418 221.365C71.5513 220.285 70.8556 219.404 69.9881 219.399C69.1206 219.393 68.4097 220.264 68.4003 221.345C68.3908 222.425 69.0865 223.306 69.954 223.312C70.8215 223.317 71.5324 222.446 71.5418 221.365Z" fill="#E6E6E6"/>
<path d="M68.116 208.923C68.1254 207.843 67.4298 206.962 66.5623 206.956C65.6948 206.951 64.9838 207.822 64.9744 208.903C64.965 209.983 65.6606 210.864 66.5281 210.869C67.3956 210.875 68.1065 210.004 68.116 208.923Z" fill="#3F3D56"/>
<path d="M94.7566 230.821C94.766 229.74 94.0704 228.86 93.2029 228.854C92.3354 228.848 91.6245 229.72 91.615 230.8C91.6056 231.881 92.3012 232.761 93.1687 232.767C94.0363 232.773 94.7472 231.901 94.7566 230.821Z" fill="#E6E6E6"/>
<path d="M83.5217 235.681C83.5311 234.601 82.8355 233.72 81.968 233.714C81.1005 233.709 80.3896 234.58 80.3802 235.661C80.3707 236.741 81.0663 237.622 81.9339 237.627C82.8014 237.633 83.5123 236.762 83.5217 235.681Z" fill="#FF5252"/>
<path d="M99.1611 244.664C99.1705 243.584 98.4749 242.703 97.6074 242.698C96.7399 242.692 96.0289 243.563 96.0195 244.644C96.0101 245.724 96.7057 246.605 97.5732 246.611C98.4407 246.616 99.1516 245.745 99.1611 244.664Z" fill="#3F3D56"/>
<path d="M266.733 181.264C266.931 180.087 265.508 178.934 263.555 178.688C261.602 178.441 259.859 179.196 259.662 180.373C259.464 181.55 260.887 182.704 262.839 182.95C264.792 183.196 266.535 182.441 266.733 181.264Z" fill="#E6E6E6"/>
<path d="M289.982 179.299C290.179 178.122 288.757 176.968 286.804 176.722C284.851 176.476 283.108 177.23 282.91 178.407C282.713 179.584 284.135 180.738 286.088 180.984C288.041 181.23 289.784 180.476 289.982 179.299Z" fill="#3F3D56"/>
<path d="M260.366 164.956C260.564 163.779 259.141 162.626 257.188 162.379C255.236 162.133 253.493 162.888 253.295 164.065C253.097 165.242 254.52 166.395 256.473 166.642C258.425 166.888 260.169 166.133 260.366 164.956Z" fill="#FF5252"/>
<path d="M250.264 158.276C250.274 157.196 249.578 156.315 248.711 156.309C247.843 156.304 247.132 157.175 247.123 158.255C247.113 159.336 247.809 160.217 248.677 160.222C249.544 160.228 250.255 159.357 250.264 158.276Z" fill="#E6E6E6"/>
<path d="M246.839 145.834C246.848 144.753 246.152 143.873 245.285 143.867C244.417 143.861 243.706 144.733 243.697 145.813C243.688 146.894 244.383 147.774 245.251 147.78C246.118 147.786 246.829 146.914 246.839 145.834Z" fill="#3F3D56"/>
<path d="M273.479 167.731C273.489 166.651 272.793 165.77 271.925 165.765C271.058 165.759 270.347 166.63 270.338 167.711C270.328 168.791 271.024 169.672 271.891 169.678C272.759 169.683 273.47 168.812 273.479 167.731Z" fill="#E6E6E6"/>
<path d="M262.244 172.592C262.254 171.511 261.558 170.631 260.691 170.625C259.823 170.619 259.112 171.491 259.103 172.571C259.093 173.652 259.789 174.532 260.656 174.538C261.524 174.544 262.235 173.672 262.244 172.592Z" fill="#FF5252"/>
<path d="M277.884 181.575C277.893 180.494 277.197 179.614 276.33 179.608C275.462 179.602 274.751 180.474 274.742 181.554C274.733 182.635 275.428 183.515 276.296 183.521C277.163 183.527 277.874 182.655 277.884 181.575Z" fill="#3F3D56"/>
<path d="M180.208 64.508C180.406 63.331 178.983 62.1773 177.031 61.9312C175.078 61.685 173.335 62.4396 173.137 63.6165C172.94 64.7935 174.362 65.9472 176.315 66.1934C178.268 66.4396 180.011 65.685 180.208 64.508Z" fill="white"/>
<path d="M203.457 62.5424C203.655 61.3654 202.232 60.2117 200.279 59.9655C198.327 59.7194 196.584 60.4739 196.386 61.6509C196.188 62.8279 197.611 63.9816 199.564 64.2278C201.516 64.4739 203.26 63.7194 203.457 62.5424Z" fill="#3F3D56"/>
<path d="M173.842 48.1998C174.04 47.0228 172.617 45.8691 170.664 45.6229C168.712 45.3768 166.969 46.1313 166.771 47.3083C166.573 48.4853 167.996 49.639 169.949 49.8852C171.901 50.1313 173.645 49.3768 173.842 48.1998Z" fill="#FF5252"/>
<path d="M163.74 41.5197C163.749 40.4392 163.054 39.5586 162.186 39.5529C161.319 39.5473 160.608 40.4186 160.598 41.4991C160.589 42.5796 161.285 43.4602 162.152 43.4659C163.02 43.4715 163.731 42.6002 163.74 41.5197Z" fill="#E6E6E6"/>
<path d="M160.314 29.0772C160.324 27.9967 159.628 27.1162 158.76 27.1105C157.893 27.1048 157.182 27.9761 157.173 29.0567C157.163 30.1372 157.859 31.0177 158.726 31.0234C159.594 31.0291 160.305 30.1578 160.314 29.0772Z" fill="#3F3D56"/>
<path d="M186.955 50.975C186.964 49.8945 186.269 49.0139 185.401 49.0083C184.534 49.0026 183.823 49.8739 183.813 50.9544C183.804 52.0349 184.499 52.9155 185.367 52.9212C186.234 52.9269 186.945 52.0555 186.955 50.975Z" fill="#E6E6E6"/>
<path d="M175.72 55.8354C175.729 54.7548 175.034 53.8743 174.166 53.8686C173.299 53.863 172.588 54.7343 172.578 55.8148C172.569 56.8953 173.265 57.7758 174.132 57.7815C175 57.7872 175.71 56.9159 175.72 55.8354Z" fill="#FF5252"/>
<path d="M191.359 64.8185C191.369 63.738 190.673 62.8575 189.805 62.8518C188.938 62.8461 188.227 63.7174 188.218 64.7979C188.208 65.8785 188.904 66.759 189.771 66.7647C190.639 66.7704 191.35 65.899 191.359 64.8185Z" fill="#3F3D56"/>
</g>
<defs>
<clipPath id="clip0_90_1241">
<rect width="290" height="287" fill="white"/>
</clipPath>
</defs>
</svg>
